<svg xmlns="http://www.w3.org/2000/svg" style="display:none"><symbol viewBox="0 0 1170 1170" id="navicon-behance"><path d="M0 938h350c26 0 52-2 76-8 24-4 48-12 68-24 22-10 42-24 58-40 14-16 28-36 36-58 10-24 14-50 14-78 0-46-10-86-32-118s-56-52-98-66c64-30 98-80 98-150 0-34-6-64-18-88s-30-42-52-54c-22-14-46-22-72-28s-56-8-88-8H0v720zm158-122V618h172c76 0 114 34 114 102 0 64-38 96-116 96H158zm0-306V342h148c74 0 110 26 110 82 0 28-10 50-26 64-18 14-42 22-72 22H158zm492 168c0 82 24 148 72 198s114 76 194 76c126 0 206-58 244-176h-126c-6 22-20 38-44 50-22 12-44 18-68 18-42 0-74-10-96-34s-32-56-32-98h376v-26c0-54-10-100-28-142-20-42-48-76-88-102s-84-40-138-40c-78 0-142 26-192 78-50 54-74 120-74 198zm114-340v-72h292v72H764zm30 284c2-34 14-62 34-82 22-20 50-30 84-30 70 0 108 38 114 112H794z"/></symbol><symbol viewBox="0 0 960 960" id="navicon-codepen"><path d="M511.7 12.6c-25.9-17.1-59.7-16.7-85.2 1L45 279.3c-20.3 14.2-32.5 37.4-32.5 62.2v286.3c0 25.5 12.8 49.2 34 63.2l387.8 256.3c25.3 16.8 58.3 16.8 83.6 0L913.4 686c21.2-14 34-37.8 34-63.2V341.6c0-25.4-12.8-49.2-34-63.2L511.7 12.6zm295.4 310.1l-146.2 98.1-137.1-99.7-.8-196 284.1 197.6zM423.8 125.3v191.9l-140.5 98.2-140.1-94 280.6-196.1zM104.9 416l90.7 60.8-90.7 63.5V416zm321.3 409.1L143.3 635.3l141.3-98.8 141.6 95v193.6zm-53.7-349.9l91.6-64.1 106.7 70.1-94.6 63.5-103.7-69.5zm153.6 349.9V631.5l135.3-90.7 145.7 95.8-281 188.5zm321.4-281.6l-96-63.1 96-64.4v127.5z"/></symbol><symbol viewBox="0 0 235.065 235.065" id="navicon-email"><path d="M156.02 58.832h18.024l-12.358 69.772c-1.376 8.066-1.42 13.908-.13 17.514 1.288 3.595 4.165 5.4 8.625 5.4s8.84-1.027 13.13-3.088c4.292-2.06 8.15-5.232 11.586-9.524s6.222-9.692 8.37-16.214c2.144-6.52 3.22-14.245 3.22-23.176 0-12.874-2.153-23.86-6.44-32.955-4.29-9.093-10.17-16.61-17.632-22.528-7.468-5.93-16.268-10.258-26.396-13.005s-21.022-4.128-32.7-4.128c-13.386 0-25.83 2.403-37.328 7.21-11.498 4.815-21.495 11.423-29.996 19.826-8.496 8.414-15.148 18.41-19.95 30.002-4.808 11.58-7.207 24.15-7.207 37.714 0 13.39 2.012 25.4 6.043 36.045 4.036 10.65 9.915 19.695 17.64 27.168 7.722 7.462 17.29 13.212 28.7 17.242 11.412 4.03 24.504 6.048 39.27 6.048 4.972 0 10.634-.598 16.987-1.795 6.353-1.207 12.102-3.008 17.253-5.412l7.98 24.72c-7.04 3.433-14.202 5.832-21.496 7.202-7.3 1.376-15.665 2.067-25.1 2.067-16.65 0-32.06-2.41-46.217-7.207-14.163-4.814-26.428-11.933-36.812-21.37-10.39-9.442-18.498-21.158-24.34-35.147C2.915 157.23 0 141.05 0 122.686c0-18.71 3.345-35.62 10.046-50.725C16.736 56.87 25.75 43.99 37.078 33.34c11.33-10.64 24.46-18.83 39.39-24.59 14.93-5.744 30.72-8.62 47.37-8.62 15.79 0 30.47 2.278 44.028 6.82 13.554 4.553 25.313 11.068 35.267 19.57 9.954 8.496 17.77 18.884 23.437 31.16 5.662 12.265 8.496 26.216 8.496 41.832 0 10.987-1.925 21.278-5.793 30.9-3.862 9.615-9.18 17.937-15.958 24.975-6.788 7.033-14.68 12.608-23.687 16.73-9.007 4.118-18.667 6.18-28.963 6.18-4.297 0-8.278-.468-11.977-1.414-3.688-.945-6.777-2.534-9.263-4.764-2.49-2.235-4.335-5.15-5.537-8.757-1.202-3.602-1.55-8.062-1.028-13.387h-1.028a136.367 136.367 0 0 1-8.365 10.552 62.222 62.222 0 0 1-9.915 9.143c-3.6 2.665-7.555 4.765-11.84 6.31-4.298 1.538-9.014 2.316-14.164 2.316-4.117 0-8.066-.903-11.84-2.698-3.78-1.806-7.045-4.34-9.786-7.598-2.752-3.258-4.94-7.207-6.565-11.846-1.637-4.634-2.448-9.785-2.448-15.447 0-10.64 1.712-20.984 5.144-31.024 3.432-10.045 8.115-18.922 14.033-26.645s12.787-13.94 20.598-18.667c7.81-4.716 16.094-7.076 24.84-7.076 6.005 0 11.074.897 15.19 2.698a45.74 45.74 0 0 1 11.33 7.087l7.974-8.245zm-16.225 31.16c-2.23-1.893-4.547-3.35-6.946-4.378-2.405-1.033-5.407-1.545-9.014-1.545-5.145 0-9.91 1.457-14.283 4.377-4.378 2.915-8.16 6.685-11.33 11.324-3.182 4.635-5.624 9.835-7.343 15.573-1.713 5.76-2.578 11.38-2.578 16.867 0 5.667 1.16 10.307 3.48 13.913 2.318 3.595 6.305 5.4 11.967 5.4 2.403 0 4.98-.728 7.722-2.18 2.752-1.463 5.406-3.394 7.99-5.798 2.573-2.4 5.058-5.15 7.462-8.235a74.84 74.84 0 0 0 6.44-9.785l6.43-35.533z"/></symbol><symbol viewBox="0 0 960 960" id="navicon-facebook"><path d="M241 526h146v434h174V526h146l22-168H561V250c0-28 6-48 18-62s34-22 66-22h90V16c-30-4-74-6-130-6-66 0-118 18-158 58-40 38-60 94-60 164v126H241v168z"/></symbol><symbol viewBox="0 0 880 880" id="navicon-github"><path d="M1 451.6c0 94 28 180 84 258 56 76 128 128 216 158 10 2 18 0 22-4 6-4 8-10 8-18v-82l-14 4c-8 0-18 2-32 2-12-2-26-2-38-4-14-4-28-10-40-18-10-8-20-20-24-36l-6-12c-4-10-10-18-18-30-8-10-16-18-24-22l-4-2c-4-2-6-4-8-6-2-4-4-6-6-8 0-4 0-6 4-8 2-2 8-2 16-2l12 2c8 2 16 6 28 14 10 8 20 16 28 30s18 26 32 34c12 10 24 14 36 14 14 0 24-2 34-4 8-2 16-4 24-8 4-26 14-46 28-60-20-2-40-4-58-10-18-4-34-12-54-22-18-10-34-22-46-38s-22-36-30-60-12-54-12-86c0-46 16-86 46-118-14-34-12-72 4-116 12-4 28 0 50 8 20 8 36 16 46 22s20 10 26 16c34-10 72-16 108-16 38 0 76 6 110 16l22-14c16-10 32-18 52-26 22-8 36-10 48-6 16 44 18 82 4 116 30 32 44 72 44 118 0 32-4 62-10 86-8 26-18 46-32 60-12 16-26 28-46 38-18 10-36 18-54 22-16 6-36 8-58 10 20 18 30 46 30 82v120c0 8 2 14 8 18 4 4 12 6 22 4 88-30 160-82 216-158 56-78 84-164 84-258 0-80-20-154-60-222-38-66-92-120-158-158-68-40-142-60-222-60-78 0-152 20-220 60-66 38-120 92-160 158-38 68-58 142-58 222z"/></symbol><symbol viewBox="0 0 952 952" id="navicon-google-plus"><path d="M24 773c0 28 8 52 22 76 22 36 54 62 98 78s90 24 140 24c60 0 118-10 170-32 54-22 94-56 122-104 18-32 26-64 26-98 0-30-6-58-18-82s-26-44-44-58c-16-16-34-30-52-42-16-14-32-26-44-40-12-12-18-26-18-40 0-12 4-26 14-38s20-24 34-34c14-12 26-24 40-38 12-14 24-32 34-54 8-22 14-46 14-74 0-34-8-64-22-90-14-28-36-52-64-76h74l80-50H390c-42 0-84 6-124 18s-74 30-104 56c-24 20-42 44-56 74s-22 60-22 92c0 56 20 102 58 138 40 38 88 56 144 56 8 0 20 0 38-2-8 18-12 34-12 48 0 16 4 30 10 42s14 26 26 42c-104 8-180 26-230 58-28 16-52 38-68 66-18 26-26 54-26 84zm106-26c0-22 6-42 16-60s24-32 40-42c14-10 34-20 54-26 22-8 42-12 62-14 20-4 40-4 60-4h28c0 2 8 6 20 16 14 8 20 14 24 16s10 8 20 16c12 10 20 16 22 20 4 4 10 12 18 20 8 10 12 18 16 24 2 8 4 16 8 24 2 10 4 18 4 28 0 24-6 44-16 62s-24 32-42 42-36 18-56 22c-20 6-42 8-64 8-26 0-50-2-74-8-22-6-46-14-68-26-20-10-38-26-52-46-12-22-20-44-20-72zm62-568c0-38 8-68 26-90 10-14 22-24 38-30 14-8 30-12 46-12 24 0 48 8 68 24s36 34 48 58 20 50 28 74c6 26 10 50 10 72 0 38-10 70-32 90-10 12-22 20-36 26-16 6-30 10-46 10-20 0-38-6-54-16-18-10-32-22-44-38s-20-34-30-52c-8-20-14-40-18-60-2-20-4-38-4-56zm434 282h120v124h60V461h122v-62H806V275h-60v124H626v62z"/></symbol><symbol viewBox="0 0 482.136 482.135" id="navicon-link"><path d="M455.482 198.184L326.83 326.832c-35.536 35.54-93.11 35.54-128.647 0l-42.88-42.886 42.88-42.876 42.884 42.876c11.845 11.822 31.064 11.846 42.886 0l128.644-128.643c11.816-11.83 11.816-31.066 0-42.9l-42.88-42.88c-11.823-11.815-31.065-11.815-42.888 0l-45.93 45.935c-21.29-12.53-45.49-17.905-69.448-16.29l72.5-72.527c35.536-35.52 93.137-35.52 128.645 0l42.886 42.882c35.535 35.523 35.535 93.14 0 128.662zM201.206 366.698l-45.903 45.9c-11.845 11.846-31.064 11.817-42.88 0l-42.885-42.88c-11.845-11.822-11.845-31.042 0-42.887l128.646-128.647c11.82-11.814 31.07-11.814 42.884 0l42.886 42.886 42.876-42.887-42.876-42.88c-35.54-35.522-93.113-35.522-128.65 0L26.654 283.945c-35.537 35.545-35.537 93.146 0 128.652L69.54 455.48c35.51 35.54 93.11 35.54 128.646 0l72.496-72.5c-23.956 1.598-48.092-3.783-69.474-16.282z"/></symbol><symbol viewBox="0 0 890 890" id="navicon-linkedin"><path d="M6 124c0 28 10 50 28 70 20 18 44 28 76 28h2c32 0 56-10 76-28 20-20 30-42 30-70s-10-52-30-70c-18-20-44-28-76-28s-56 8-76 28C16 72 6 96 6 124zm10 740h190V298H16v566zm294 0h188V548c0-18 2-34 6-46 8-20 20-36 36-48 16-14 36-20 60-20 34 0 58 12 72 34 16 22 24 54 24 94v302h188V540c0-84-20-146-60-190s-92-64-156-64c-24 0-46 2-66 8s-36 14-50 24c-14 12-24 22-32 30-8 10-16 20-24 32h2v-82H310v566z"/></symbol><symbol viewBox="0 0 35 35" id="navicon-mobile"><path d="M25.302 0H9.698a2.37 2.37 0 0 0-2.364 2.364v30.27A2.37 2.37 0 0 0 9.698 35h15.604a2.37 2.37 0 0 0 2.364-2.364V2.364A2.37 2.37 0 0 0 25.302 0zM15.004 1.704h4.992a.286.286 0 0 1 0 .573h-4.992a.286.286 0 0 1 0-.573zM17.5 33.818a1.182 1.182 0 1 1 0-2.364 1.182 1.182 0 0 1 0 2.364zm8.52-3.193H8.98V3.75h17.04v26.875z"/></symbol><symbol viewBox="0 0 960 960" id="navicon-rss"><path d="M217.6 742.1c23.3 23.2 37.4 54.7 37.5 89.8-.1 35-14.2 66.5-37.4 89.7h-.1c-23.2 23.1-54.9 37.2-90.2 37.2-35.2 0-66.8-14.2-90-37.3C14.2 898.4 0 866.9 0 831.9c0-35.1 14.2-66.7 37.4-89.8 23.2-23.1 54.8-37.4 90-37.4 35.3 0 67 14.3 90.2 37.4zm0-.1c0 .1 0 .1 0 0zM37.4 921.6c0-.1 0-.1 0 0zM.1 326.4v183.3c119.7.1 232.9 47.1 317.6 131.9 84.7 84.6 131.5 197.9 131.7 318h.1v.3h184.1c-.1-174.6-71.1-332.8-185.9-447.6C332.8 397.6 174.7 326.6.1 326.4zM.4 0v183.2c427.8.3 775.6 348.6 775.8 776.8H960c-.1-264.6-107.7-504.4-281.5-678.4C504.6 107.7 265 .1.4 0z"/></symbol><symbol viewBox="0 0 900 900" id="navicon-twitter"><path d="M0 733c84 56 180 82 282 82 66 0 128-10 186-30 56-22 106-48 146-84 42-34 76-74 106-120s52-92 66-142 22-98 22-148v-24c36-26 66-58 92-96-36 16-72 26-106 28 40-24 66-58 80-100-36 20-76 36-116 44-38-40-82-58-136-58-50 0-94 18-130 54s-54 78-54 130c0 14 2 28 4 42-74-4-146-22-212-56S108 175 62 119c-16 28-26 58-26 92 0 32 8 62 24 88 14 28 34 50 60 66-30-2-58-8-84-24v2c0 46 14 84 42 118s64 56 106 64c-16 4-32 6-48 6-12 0-24 0-36-2 12 36 34 66 66 90s66 36 106 38c-66 52-142 78-228 78-16 0-32 0-44-2z"/></symbol></svg>