<svg xmlns="http://www.w3.org/2000/svg" style="display:none">
    <symbol id="navicon-home" viewBox="0 0 952 1024">
        <path class="path1" d="M14 524c0 4 2 8 4 12l36 42c4 4 8 6 12 8 4 0 10-2 14-4l396-330 394 330c4 2 8 4 12 4h2c6-2 10-4 12-8l36-42c4-4 4-8 4-12 0-6-2-10-6-14l-126-104v-232c0-6-2-10-4-14-4-2-8-4-14-4h-110c-4 0-10 2-12 4-4 4-6 8-6 14v112l-140-118c-12-10-26-14-42-14-18 0-32 4-44 14l-410 342c-4 4-6 8-8 14zM146 850c0 10 4 18 12 26 6 8 14 10 24 10h220v-218h146v218h220c10 0 18-2 26-10 6-8 10-16 10-26v-278l-328-270-330 270v278z"></path>
    </symbol>
    <symbol id="navicon-about" viewBox="0 0 1098 1024">
        <path class="path1" d="M26 558c0 4 2 10 6 12l266 268c4 2 8 4 12 4 6 0 10-2 14-4l28-30c4-4 6-8 6-12 0-6-2-10-6-14l-224-224 224-224c4-4 6-10 6-14s-2-10-6-14l-28-28c-4-4-8-6-14-6-4 0-8 2-12 6l-266 266c-4 4-6 8-6 14zM406 916c0 6 0 10 2 14s6 8 12 10l34 10c6 0 10 0 14-2s8-6 10-12l212-738c2-4 2-8-2-14-2-4-6-6-10-8l-36-10c-4-2-8 0-14 2-4 2-6 6-8 10zM738 796c0 4 2 8 6 12l30 30c2 2 8 4 12 4 6 0 10-2 14-4l266-268c4-2 6-8 6-12 0-6-2-10-6-14l-266-266c-4-4-8-6-14-6-4 0-10 2-12 6l-30 28c-4 4-6 10-6 14s2 10 6 14l226 224-226 224c-4 4-6 8-6 14z"></path>
    </symbol>
    <symbol id="navicon-work" viewBox="0 0 952 1024">
        <path class="path1" d="M66 924c14 24 40 36 80 36h658c40 0 68-12 80-36 14-24 10-54-12-88l-286-452v-228h36c10 0 18-4 26-12 6-6 10-16 10-26s-4-18-10-24c-8-8-16-12-26-12h-292c-10 0-20 4-26 12-8 6-12 14-12 24s4 20 12 26c6 8 16 12 26 12h36v228l-288 452c-22 34-26 64-12 88zM272 668l156-246 10-18v-248h74v248l12 18 154 246h-406z"></path>
    </symbol>
    <symbol id="navicon-blog" viewBox="0 0 952 1024">
        <path d="M0 412c0 30 10 56 32 78 22 20 48 32 78 32h128c14 0 28 4 38 16 12 10 16 22 16 38v18c0 40-14 76-42 104s-64 42-104 42h-36c-10 0-18 4-26 12-8 6-10 16-10 26v72c0 10 2 18 10 26s16 10 26 10h36c40 0 78-6 114-22s66-36 94-62c26-28 46-58 62-94s22-74 22-114v-402c0-30-10-56-32-78-20-22-46-32-76-32h-220c-30 0-56 10-78 32s-32 48-32 78v220zM512 412c0 30 10 56 32 78 22 20 48 32 78 32h128c14 0 28 4 38 16 12 10 16 22 16 38v18c0 40-14 76-42 104s-64 42-104 42h-36c-10 0-18 4-26 12-8 6-10 16-10 26v72c0 10 2 18 10 26s16 10 26 10h36c40 0 78-6 114-22s66-36 94-62c26-28 46-58 62-94s22-74 22-114v-402c0-30-10-56-32-78-20-22-46-32-76-32h-220c-30 0-56 10-78 32s-32 48-32 78v220z"></path>
    </symbol>
    <symbol id="navicon-contact" viewBox="0 0 1024 1024">
        <path d="M0 596c2 16 8 26 22 32l270 110v258c0 8 2 16 6 22 6 6 10 10 18 12 4 2 8 4 14 4 10 0 20-4 26-12l170-188 302 124c4 2 8 2 14 2s12-2 16-4c12-6 18-16 20-26l146-878c2-16-4-28-16-36-12-10-26-10-38-2l-952 548c-14 8-20 20-18 34zM120 588l818-472-126 756-280-114 272-456-492 364z"></path>
    </symbol>
    <symbol id="navicon-facebook" viewBox="0 0 586 1024">
        <path d="M54 526h146v434h174v-434h146l22-168h-168v-108c0-28 6-48 18-62s34-22 66-22h90v-150c-30-4-74-6-130-6-66 0-118 18-158 58-40 38-60 94-60 164v126h-146v168z"></path>
    </symbol>
    <symbol id="navicon-twitter" viewBox="0 0 952 1024">
        <title>Twitter</title>
        <path d="M26 804c84 56 180 82 282 82 66 0 128-10 186-30 56-22 106-48 146-84 42-34 76-74 106-120s52-92 66-142 22-98 22-148v-24c36-26 66-58 92-96-36 16-72 26-106 28 40-24 66-58 80-100-36 20-76 36-116 44-38-40-82-58-136-58-50 0-94 18-130 54s-54 78-54 130c0 14 2 28 4 42-74-4-146-22-212-56s-122-80-168-136c-16 28-26 58-26 92 0 32 8 62 24 88 14 28 34 50 60 66-30-2-58-8-84-24v2c0 46 14 84 42 118s64 56 106 64c-16 4-32 6-48 6-12 0-24 0-36-2 12 36 34 66 66 90s66 36 106 38c-66 52-142 78-228 78-16 0-32 0-44-2z"></path>
    </symbol>
    <symbol id="navicon-gplus" viewBox="0 0 952 1024">
        <path class="path1" d="M18 782c0 28 8 52 22 76 22 36 54 62 98 78s90 24 140 24c60 0 118-10 170-32 54-22 94-56 122-104 18-32 26-64 26-98 0-30-6-58-18-82s-26-44-44-58c-16-16-34-30-52-42-16-14-32-26-44-40-12-12-18-26-18-40 0-12 4-26 14-38s20-24 34-34c14-12 26-24 40-38 12-14 24-32 34-54 8-22 14-46 14-74 0-34-8-64-22-90-14-28-36-52-64-76h74l80-50h-240c-42 0-84 6-124 18s-74 30-104 56c-24 20-42 44-56 74s-22 60-22 92c0 56 20 102 58 138 40 38 88 56 144 56 8 0 20 0 38-2-8 18-12 34-12 48 0 16 4 30 10 42s14 26 26 42c-104 8-180 26-230 58-28 16-52 38-68 66-18 26-26 54-26 84zM124 756c0-22 6-42 16-60s24-32 40-42c14-10 34-20 54-26 22-8 42-12 62-14 20-4 40-4 60-4h28c0 2 8 6 20 16 14 8 20 14 24 16s10 8 20 16c12 10 20 16 22 20 4 4 10 12 18 20 8 10 12 18 16 24 2 8 4 16 8 24 2 10 4 18 4 28 0 24-6 44-16 62s-24 32-42 42-36 18-56 22c-20 6-42 8-64 8-26 0-50-2-74-8-22-6-46-14-68-26-20-10-38-26-52-46-12-22-20-44-20-72zM186 188c0-38 8-68 26-90 10-14 22-24 38-30 14-8 30-12 46-12 24 0 48 8 68 24s36 34 48 58 20 50 28 74c6 26 10 50 10 72 0 38-10 70-32 90-10 12-22 20-36 26-16 6-30 10-46 10-20 0-38-6-54-16-18-10-32-22-44-38s-20-34-30-52c-8-20-14-40-18-60-2-20-4-38-4-56zM620 470h120v124h60v-124h122v-62h-122v-124h-60v124h-120v62z"></path>
    </symbol>
    <symbol id="navicon-github" viewBox="0 0 1024 1024">
        <path class="path1" d="M0 522c0 94 28 180 84 258 56 76 128 128 216 158 10 2 18 0 22-4 6-4 8-10 8-18v-82l-14 4c-8 0-18 2-32 2-12-2-26-2-38-4-14-4-28-10-40-18-10-8-20-20-24-36l-6-12c-4-10-10-18-18-30-8-10-16-18-24-22l-4-2c-4-2-6-4-8-6-2-4-4-6-6-8 0-4 0-6 4-8 2-2 8-2 16-2l12 2c8 2 16 6 28 14 10 8 20 16 28 30s18 26 32 34c12 10 24 14 36 14 14 0 24-2 34-4 8-2 16-4 24-8 4-26 14-46 28-60-20-2-40-4-58-10-18-4-34-12-54-22-18-10-34-22-46-38s-22-36-30-60-12-54-12-86c0-46 16-86 46-118-14-34-12-72 4-116 12-4 28 0 50 8 20 8 36 16 46 22s20 10 26 16c34-10 72-16 108-16 38 0 76 6 110 16l22-14c16-10 32-18 52-26 22-8 36-10 48-6 16 44 18 82 4 116 30 32 44 72 44 118 0 32-4 62-10 86-8 26-18 46-32 60-12 16-26 28-46 38-18 10-36 18-54 22-16 6-36 8-58 10 20 18 30 46 30 82v120c0 8 2 14 8 18 4 4 12 6 22 4 88-30 160-82 216-158 56-78 84-164 84-258 0-80-20-154-60-222-38-66-92-120-158-158-68-40-142-60-222-60-78 0-152 20-220 60-66 38-120 92-160 158-38 68-58 142-58 222z"></path>
    </symbol>
    <symbol id="navicon-behance" viewBox="0 0 1170 1024">
        <path class="path1" d="M0 874h350c26 0 52-2 76-8 24-4 48-12 68-24 22-10 42-24 58-40 14-16 28-36 36-58 10-24 14-50 14-78 0-46-10-86-32-118s-56-52-98-66c64-30 98-80 98-150 0-34-6-64-18-88s-30-42-52-54c-22-14-46-22-72-28s-56-8-88-8h-340v720zM158 752v-198h172c76 0 114 34 114 102 0 64-38 96-116 96h-170zM158 446v-168h148c74 0 110 26 110 82 0 28-10 50-26 64-18 14-42 22-72 22h-160zM650 614c0 82 24 148 72 198s114 76 194 76c126 0 206-58 244-176h-126c-6 22-20 38-44 50-22 12-44 18-68 18-42 0-74-10-96-34s-32-56-32-98h376v-26c0-54-10-100-28-142-20-42-48-76-88-102s-84-40-138-40c-78 0-142 26-192 78-50 54-74 120-74 198zM764 274v-72h292v72h-292zM794 558c2-34 14-62 34-82 22-20 50-30 84-30 70 0 108 38 114 112h-232z"></path>
    </symbol>
    <symbol id="navicon-linkedin" viewBox="0 0 1024 1024">
        <path class="path1" d="M0 192c0 28 10 50 28 70 20 18 44 28 76 28h2c32 0 56-10 76-28 20-20 30-42 30-70s-10-52-30-70c-18-20-44-28-76-28s-56 8-76 28c-20 18-30 42-30 70zM10 932h190v-566h-190v566zM304 932h188v-316c0-18 2-34 6-46 8-20 20-36 36-48 16-14 36-20 60-20 34 0 58 12 72 34 16 22 24 54 24 94v302h188v-324c0-84-20-146-60-190s-92-64-156-64c-24 0-46 2-66 8s-36 14-50 24c-14 12-24 22-32 30-8 10-16 20-24 32h2v-82h-188v566z"></path>
    </symbol>
</svg>
