<svg xmlns="http://www.w3.org/2000/svg" viewBox="0 0 960 380" preserveAspectRatio="xMinYMin meet"><g><g><path class="shadow" d="M187 311.7v16l6 3h5v53h119v-53h333v53h119v-53h11v-16l-3-3z"/><path class="dark-blue" d="M187 311.7v16h8v53h119v-53h333v53h119v-53h11v-16z"/><path fill="#44B29D" d="M205.5 328.7h97.3v52h-97.3z"/><path fill="#fff" d="M277 349h-45.7c-1.4 0-2.5-1.1-2.5-2.5s1.1-2.5 2.5-2.5H277c1.4 0 2.5 1.1 2.5 2.5s-1.1 2.5-2.5 2.5z"/><path fill="#44B29D" d="M658.5 328.7h97.3v52h-97.3z"/><path fill="#fff" d="M730 349h-45.7c-1.4 0-2.5-1.1-2.5-2.5s1.1-2.5 2.5-2.5H730c1.4 0 2.5 1.1 2.5 2.5s-1.1 2.5-2.5 2.5z"/></g><g class="mac"><path fill="#F2F0EB" d="M406 276.2h-44.5l-4 29.8H410z"/><path fill="#fff" d="M485 277.2H282.5c-5 0-9-4-9-9v-130c0-5 4-9 9-9H485c5 0 9 4 9 9v130c0 5-4 9-9 9z"/><path fill="#253036" d="M282.5 129.2H485c5 0 9 4 9 9V259H273.5V138.2c0-5 4-9 9-9z"/><path class="dark-blue" d="M281.3 137.7h205v113.8h-205z"/><circle fill="#C4C4C4" cx="383.8" cy="269" r="5"/><path fill="#fff" d="M281.3 137.7h205v5.5h-205zM414.4 311.7h-61.5c-1.6 0-2.9-1.3-2.9-2.9 0-1.6 1.3-2.9 2.9-2.9h61.5c1.6 0 2.9 1.3 2.9 2.9 0 1.6-1.3 2.9-2.9 2.9z"/><path fill="#C4C4C4" d="M281.3 143.2h205v8.8h-205zM281.4 151h14.8v100.4h-14.8zM453.7 151.1h32.6v100.4h-32.6z"/><path fill="#F2F0EB" d="M283.5 154H294v9h-10.5zM283.5 166H294v9h-10.5zM283.5 178H294v9h-10.5zM283.5 190H294v9h-10.5zM283.5 202H294v9h-10.5zM283.5 214H294v9h-10.5zM283.5 226H294v9h-10.5z"/><path fill="#F2F0EB" fill-opacity=".14" d="M308.5 163h91.7v72h-91.7z"/><path fill="#44B29D" d="M308.5 163h91.7v5.3h-91.7z"/><path fill="#F2F0EB" fill-opacity=".14" d="M342.5 173.7H445v72H342.5z"/><path fill="#FABA2C" d="M342.5 173.7H445v5.3H342.5z"/><circle fill="#C1272D" cx="286" cy="140.5" r="1.8"/><circle fill="#FABA2C" cx="291" cy="140.5" r="1.8"/><circle fill="#44B29D" cx="296" cy="140.5" r="1.8"/><path fill="#F2F0EB" d="M283 145.7h22.5v3.7H283zM309 145.7h22.5v3.7H309zM335 145.7h22.5v3.7H335zM456.7 158.5h26v2.8h-26zM456.7 163h26v13.3h-26zM456.7 178.5h26v2.8h-26zM456.7 183h26v13.3h-26zM456.7 198.5h26v2.8h-26zM456.7 203h26v13.3h-26zM456.7 218.5h26v2.8h-26zM456.7 223h26v13.3h-26z"/></g><g><path fill="#253036" d="M600.1 279.9h-11.8v27.5l11.8-.3zM684.2 280.8H504.5c-5 0-9-4-9-9V157.1c0-4.9 4-9 9-9h179.7c5 0 9 4.1 9 9v114.7c0 4.9-4.1 9-9 9z"/><path fill="#fff" d="M502.4 155.7h183.8v117H502.4zM502.4 155.7h183.8v4.9H502.4z"/><path fill="#253036" d="M621.8 311.7h-55.1c-1.4 0-2.6-1.2-2.6-2.6 0-1.4 1.2-2.6 2.6-2.6h55.1c1.4 0 2.6 1.2 2.6 2.6 0 1.4-1.2 2.6-2.6 2.6z"/><path fill="#C4C4C4" d="M502.4 160.6h183.8v7.8H502.4z"/><path fill="#F2F0EB" d="M548.3 224.5h91.9v7h-91.9z"/><circle fill="#C1272D" cx="506.7" cy="158.2" r="1.6"/><circle fill="#FABA2C" cx="511.2" cy="158.2" r="1.6"/><circle fill="#44B29D" cx="515.7" cy="158.2" r="1.6"/><path fill="#F2F0EB" d="M504 162.9h20.2v3.3H504zM527.3 162.9h20.2v3.3h-20.2zM550.6 162.9h20.2v3.3h-20.2z"/><path fill="#44B29D" d="M578.2 203.2c0-8.8 6.8-15.9 15.8-15.9v15.9c-4.5 5.7-3.1 4.3-10.9 11.5-3-2.9-4.9-7-4.9-11.5z"/><path fill="#EB4A4A" d="M603 190.2c7.2 5 9.2 14.6 4.1 22l-13.1-9c-2.2-6.9-1.8-4.9-3.3-15.5 4.1-.9 8.5-.1 12.3 2.5z"/><path fill="#FABA2C" d="M602.3 216.6c-7.4 4.6-17.1 2.7-21.8-5l13.5-8.4s14.3 2.8 15.5 3.2c-.8 4.1-3.3 7.8-7.2 10.2z"/><path class="dark-blue" d="M594.2 209.1c-3.2 0-5.9-2.6-5.9-5.9s2.6-5.9 5.9-5.9 5.9 2.6 5.9 5.9-2.6 5.9-5.9 5.9z"/></g><g><path fill="#fff" d="M426.1 306.2h128.4c2.6 0 4.7 2.1 4.7 4.7 0 1-2 .7-2 .7l-133.4.3s-2.9.1-2.5-1c0-2.6 2.2-4.7 4.8-4.7z"/><path fill="#C4C4C4" d="M430.3 305.1h120.5c2.4 0 4.4.7 4.4 1.5 0 .3-1.8.2-1.8.2l-125.2.1s-2.7 0-2.4-.3c0-.9 2-1.5 4.5-1.5z"/></g><g><path fill="#fff" d="M633 305.4h19.5c.4 0 .7 2.5.7 5.7 0 1.2-.3.8-.3.8l-20.3.3s-.4.1-.4-1.2c.1-3 .4-5.6.8-5.6z"/><path fill="#C4C4C4" d="M643.8 307.8h-2.2s-.1-.8-.1-1.8v-.3l2.3-.1s.1 0 0 .4c.1 1 .1 1.8 0 1.8z"/></g><g><ellipse fill="none" cx="729.7" cy="310.3" rx="9.6" ry="3"/><path fill="#EB4A4A" d="M719.3 298.7l.8 13h19.3l.2-13z"/><path fill="#DB4646" d="M719.3 298.7h20.3l3.4-6h-27.2z"/><path fill="#EB4A4A" d="M711.8 254.8l3.8 36.9h27.8l4.1-37.1z"/><path fill="#fff" d="M715.8 292.7l-.2-1h27.8l-.4 1z"/><path fill="#EB4A4A" d="M711.8 253.2h35.7v.8h-35.7zM747.4 236.2l-8.6 9.1-2.1 8.8c-.1.3-.4.6-.8.6l-2.1.1c-.5 0-.9-.5-.8-1l2.8-10 9.4-9.7c.4-.4.8-.2 1.3.2l1.1 1c0 .2 0 .6-.2.9z"/><path fill="#fff" d="M711.8 254h35.7v.8h-35.7z"/></g></g><g class="clock"><circle class="shadow" cx="779" cy="98.4" r="32"/><circle class="outer" cx="777" cy="96.4" r="32"/><circle class="inner" cx="777" cy="96.4" r="29"/><circle class="shadow" cx="777" cy="96.4" r="29"/><circle class="inner" cx="778" cy="97.4" r="27"/><circle class="point--quarter" cx="799" cy="96.4" r="1.5"/><circle class="point--quarter" cx="754" cy="96.4" r="1.5"/><circle class="point--quarter" cx="777" cy="74.4" r="1.5"/><circle class="point--quarter" cx="777" cy="119.4" r="1.5"/><circle class="point" cx="787" cy="78.4" r="1"/><circle class="point" cx="795" cy="86.4" r="1"/><circle class="point" cx="795" cy="106.4" r="1"/><circle class="point" cx="786" cy="115.4" r="1"/><circle class="point" cx="766" cy="78.4" r="1"/><circle class="point" cx="758" cy="86.4" r="1"/><circle class="point" cx="758" cy="106.4" r="1"/><circle class="point" cx="766" cy="115.4" r="1"/><path class="hands hands--hours" d="M777 102.4v-25"/><path class="hands hands--minute" d="M777 102.4v-28"/><path class="hands hands--seconds" d="M777 102.4V72.5"/><circle class="circle" cx="777" cy="96.4" r="2"/></g><g><path fill="#FABA2C" d="M826 157.7v41h11v-41h-11zm5.4 36.1c-1.6 0-2.9-1.3-2.9-2.9s1.3-2.9 2.9-2.9 2.9 1.3 2.9 2.9-1.3 2.9-2.9 2.9z"/><path fill="#fff" d="M828.3 163.3h6.3v8.9h-6.3z"/><path fill="#C4C4C4" d="M829.3 166.3h4.1v1.4h-4.1zM829.3 168.3h4.1v1.4h-4.1z"/><path fill="#FABA2C" d="M838 157.7v41h11v-41h-11zm5.4 36.1c-1.6 0-2.9-1.3-2.9-2.9s1.3-2.9 2.9-2.9 2.9 1.3 2.9 2.9-1.3 2.9-2.9 2.9z"/><path fill="#fff" d="M840.3 163.3h6.3v8.9h-6.3z"/><path fill="#C4C4C4" d="M841.3 166.3h4.1v1.4h-4.1zM841.3 168.3h4.1v1.4h-4.1z"/><path fill="#44B29D" d="M850 157.7v41h11v-41h-11zm5.4 36.1c-1.6 0-2.9-1.3-2.9-2.9s1.3-2.9 2.9-2.9 2.9 1.3 2.9 2.9-1.3 2.9-2.9 2.9z"/><path fill="#fff" d="M852.3 163.3h6.3v8.9h-6.3z"/><path fill="#C4C4C4" d="M853.3 166.3h4.1v1.4h-4.1zM853.3 168.3h4.1v1.4h-4.1z"/><path fill="#44B29D" d="M863 157.7v41h11v-41h-11zm5 36.1c-1.6 0-2.9-1.3-2.9-2.9s1.3-2.9 2.9-2.9 2.9 1.3 2.9 2.9-1.3 2.9-2.9 2.9z"/><path fill="#fff" d="M865 163.3h6.3v8.9H865z"/><path fill="#C4C4C4" d="M866.1 166.3h4.1v1.4h-4.1zM866.1 168.3h4.1v1.4h-4.1z"/><path class="dark-blue" d="M875 157.7v41h11v-41h-11zm5.4 36.1c-1.6 0-2.9-1.3-2.9-2.9s1.3-2.9 2.9-2.9 2.9 1.3 2.9 2.9-1.3 2.9-2.9 2.9z"/><path fill="#fff" d="M877.3 163.3h6.3v8.9h-6.3z"/><path fill="#C4C4C4" d="M878.3 166.3h4.1v1.4h-4.1zM878.3 168.3h4.1v1.4h-4.1z"/><path class="dark-blue" d="M817.6 160.6l-26.9 30.9 8.3 7.2 26.9-30.9-8.3-7.2zM798 191.3c-1.2-1-1.3-2.9-.3-4.1s2.9-1.3 4.1-.3c1.2 1 1.3 2.9.3 4.1-1.1 1.2-2.9 1.4-4.1.3z"/><path fill="#fff" d="M815.713 166.28l4.75 4.14-5.845 6.71-4.75-4.138z"/><path fill="#C4C4C4" d="M814.506 169.242l3.09 2.693-.918 1.056-3.092-2.692zM813.208 170.753l3.09 2.693-.918 1.056-3.092-2.693z"/><ellipse fill="#44B29D" cx="922.2" cy="158.9" rx="5.5" ry="2.4"/><ellipse fill="#44B29D" cx="934.2" cy="158.9" rx="5.5" ry="2.4"/><ellipse fill="#44B29D" cx="922.2" cy="166.9" rx="5.5" ry="2.4"/><ellipse fill="#44B29D" cx="934.2" cy="166.9" rx="5.5" ry="2.4"/><path fill="none" stroke="#44B29D" stroke-width="2" stroke-miterlimit="10" d="M928 178.7v-27"/><circle fill="#fff" cx="932.3" cy="136.2" r="5.7"/><circle fill="#fff" cx="935.3" cy="143.2" r="5.7"/><circle fill="#fff" cx="931.3" cy="149.2" r="5.7"/><circle fill="#fff" cx="925.3" cy="149.2" r="5.7"/><circle fill="#fff" cx="920.3" cy="143.2" r="5.7"/><circle fill="#fff" cx="924.3" cy="136.2" r="5.7"/><circle fill="#FABA2C" cx="928.3" cy="143.2" r="5.7"/><path fill="#EB4A4A" d="M916 198h24.7l3-23.5H913z"/><path fill="#C4C4C4" d="M942.8 181.4h-28.9l-.4-2.7h29.6z"/><rect class="dark-blue" width="200" height="8" x="752" y="197" rx="2" ry="2"/><path class="shadow" d="M752 197h200l3 3v8H755l-3-3z"/></g><g class="pinboard"><path class="shadow" d="M0 74.4h132.3l3 3v162H3l-3-3z"/><path class="dark-blue" d="M0 74.4h132.3v162H0z"/><path fill="#F2F0EB" d="M4 78.7h124v154H4z"/><path class="shadow" d="M4 78.7h124v154H4z"/><path fill="#F2F0EB" d="M7 81.7h121v151H7z"/><path class="shadow" d="M20.7 131.5H44v27.2H20.7z"/><path fill="#44B29D" d="M19.7 130.5H43v27.2H19.7z"/><circle fill="#EB4A4A" cx="31.4" cy="130.5" r="2.9"/><path class="shadow" d="M58.7 107.8h24.7v28.1H58.7z"/><path fill="#FABA2C" d="M57.7 106.8h24.7v28.1H57.7z"/><circle fill="#EB4A4A" cx="70.4" cy="106.5" r="2.9"/><path class="shadow" d="M89.3 142.7h22v32.1h-22z"/><path fill="#fff" d="M88.3 141.7h22v32.1h-22z"/><circle fill="#EB4A4A" cx="99.4" cy="141.5" r="2.9"/></g></svg>