<svg id="wall" version="1.1" xmlns="http://www.w3.org/2000/svg" xmlns:xlink="http://www.w3.org/1999/xlink" x="0px" y="0px" viewBox="0 0 960 380" preserveAspectRatio="xMinYMin meet" xml:space="preserve">
    <g id="desk">
        <g id="table">
            <polygon class="shadow" points="187,311.7 187,327.7 193,330.7 198,330.7 198,383.7 317,383.7 317,330.7 650,330.7 650,383.7 769,383.7 769,330.7 780,330.7 780,314.7 777,311.7"/>
            <polygon class="dark-blue" points="187,311.7 187,327.7 195,327.7 195,380.7 314,380.7 314,327.7 647,327.7 647,380.7 766,380.7 766,327.7 777,327.7 777,311.7"/>
            <rect x="205.5" y="328.7" fill="#44B29D" width="97.3" height="52"/>
            <path fill="#FFFFFF" d="M277,349h-45.7c-1.4,0-2.5-1.1-2.5-2.5l0,0c0-1.4,1.1-2.5,2.5-2.5H277c1.4,0,2.5,1.1,2.5,2.5l0,0 C279.5,347.9,278.4,349,277,349z"/>
            <rect x="658.5" y="328.7" fill="#44B29D" width="97.3" height="52"/>
            <path fill="#FFFFFF" d="M730,349h-45.7c-1.4,0-2.5-1.1-2.5-2.5l0,0c0-1.4,1.1-2.5,2.5-2.5H730c1.4,0,2.5,1.1,2.5,2.5l0,0 C732.5,347.9,731.4,349,730,349z"/>
        </g>
        <g id="i-mac" class="mac">
            <polygon fill="#F2F0EB" points="406,276.2 361.5,276.2 357.5,306 410,306"/>
            <path fill="#FFFFFF" d="M485,277.2H282.5c-5,0-9-4-9-9v-130c0-5,4-9,9-9H485c5,0,9,4,9,9v130C494,273.2,490,277.2,485,277.2z"/>
            <path fill="#253036" d="M282.5,129.2H485c5,0,9,4,9,9V259H273.5V138.2C273.5,133.2,277.5,129.2,282.5,129.2z"/>
            <rect x="281.3" y="137.7" class="dark-blue" width="205" height="113.8"/>
            <circle fill="#C4C4C4" cx="383.8" cy="269" r="5"/>
            <rect x="281.3" y="137.7" fill="#FFFFFF" width="205" height="5.5"/>
            <path fill="#FFFFFF" d="M414.4,311.7h-61.5c-1.6,0-2.9-1.3-2.9-2.9l0,0c0-1.6,1.3-2.9,2.9-2.9h61.5c1.6,0,2.9,1.3,2.9,2.9l0,0 C417.3,310.4,416,311.7,414.4,311.7z"/>
            <rect x="281.3" y="143.2" fill="#C4C4C4" width="205" height="8.8"/>
            <rect x="281.4" y="151" fill="#C4C4C4" width="14.8" height="100.4"/>
            <rect x="453.7" y="151.1" fill="#C4C4C4" width="32.6" height="100.4"/>
            <rect x="283.5" y="154" fill="#F2F0EB" width="10.5" height="9"/>
            <rect x="283.5" y="166" fill="#F2F0EB" width="10.5" height="9"/>
            <rect x="283.5" y="178" fill="#F2F0EB" width="10.5" height="9"/>
            <rect x="283.5" y="190" fill="#F2F0EB" width="10.5" height="9"/>
            <rect x="283.5" y="202" fill="#F2F0EB" width="10.5" height="9"/>
            <rect x="283.5" y="214" fill="#F2F0EB" width="10.5" height="9"/>
            <rect x="283.5" y="226" fill="#F2F0EB" width="10.5" height="9"/>
            <rect x="308.5" y="163" fill="#F2F0EB" fill-opacity="0.14" width="91.7" height="72"/>
            <rect x="308.5" y="163" fill="#44B29D" width="91.7" height="5.3"/>
            <rect x="342.5" y="173.7" fill="#F2F0EB" fill-opacity="0.14" width="102.5" height="72"/>
            <rect x="342.5" y="173.7" fill="#FABA2C" width="102.5" height="5.3"/>
            <circle fill="#C1272D" cx="286" cy="140.5" r="1.8"/>
            <circle fill="#FABA2C" cx="291" cy="140.5" r="1.8"/>
            <circle fill="#44B29D" cx="296" cy="140.5" r="1.8"/>
            <rect x="283" y="145.7" fill="#F2F0EB" width="22.5" height="3.7"/>
            <rect x="309" y="145.7" fill="#F2F0EB" width="22.5" height="3.7"/>
            <rect x="335" y="145.7" fill="#F2F0EB" width="22.5" height="3.7"/>
            <rect x="456.7" y="158.5" fill="#F2F0EB" width="26" height="2.8"/>
            <rect x="456.7" y="163" fill="#F2F0EB" width="26" height="13.3"/>
            <rect x="456.7" y="178.5" fill="#F2F0EB" width="26" height="2.8"/>
            <rect x="456.7" y="183" fill="#F2F0EB" width="26" height="13.3"/>
            <rect x="456.7" y="198.5" fill="#F2F0EB" width="26" height="2.8"/>
            <rect x="456.7" y="203" fill="#F2F0EB" width="26" height="13.3"/>
            <rect x="456.7" y="218.5" fill="#F2F0EB" width="26" height="2.8"/>
            <rect x="456.7" y="223" fill="#F2F0EB" width="26" height="13.3"/>
        </g>
        <g id="secondary-monitor">
            <polygon fill="#253036" points="600.1,279.9 588.3,279.9 588.3,307.4 600.1,307.1 "/>
            <path fill="#253036" d="M684.2,280.8H504.5c-5,0-9-4-9-9V157.1c0-4.9,4-9,9-9h179.7c5,0,9,4.1,9,9v114.7 C693.2,276.7,689.1,280.8,684.2,280.8z"/>
            <rect x="502.4" y="155.7" fill="#FFFFFF" width="183.8" height="117"/>
            <rect x="502.4" y="155.7" fill="#FFFFFF" width="183.8" height="4.9"/>
            <path fill="#253036" d="M621.8,311.7h-55.1c-1.4,0-2.6-1.2-2.6-2.6l0,0c0-1.4,1.2-2.6,2.6-2.6h55.1c1.4,0,2.6,1.2,2.6,2.6l0,0 C624.4,310.5,623.2,311.7,621.8,311.7z"/>
            <rect x="502.4" y="160.6" fill="#C4C4C4" width="183.8" height="7.8"/>
            <rect x="548.3" y="224.5" fill="#F2F0EB" width="91.9" height="7"/>
            <circle fill="#C1272D" cx="506.7" cy="158.2" r="1.6"/>
            <circle fill="#FABA2C" cx="511.2" cy="158.2" r="1.6"/>
            <circle fill="#44B29D" cx="515.7" cy="158.2" r="1.6"/>
            <rect x="504" y="162.9" fill="#F2F0EB" width="20.2" height="3.3"/>
            <rect x="527.3" y="162.9" fill="#F2F0EB" width="20.2" height="3.3"/>
            <rect x="550.6" y="162.9" fill="#F2F0EB" width="20.2" height="3.3"/>
            <path fill="#44B29D" d="M578.2,203.2c0-8.8,6.8-15.9,15.8-15.9v15.9c-4.5,5.7-3.1,4.3-10.9,11.5 C580.1,211.8,578.2,207.7,578.2,203.2z"/>
            <path fill="#EB4A4A" d="M603,190.2c7.2,5,9.2,14.6,4.1,22l-13.1-9c-2.2-6.9-1.8-4.9-3.3-15.5C594.8,186.8,599.2,187.6,603,190.2z"/>
            <path fill="#FABA2C" d="M602.3,216.6c-7.4,4.6-17.1,2.7-21.8-5l13.5-8.4c0,0,14.3,2.8,15.5,3.2 C608.7,210.5,606.2,214.2,602.3,216.6z"/>
            <path class="dark-blue" d="M594.2,209.1c-3.2,0-5.9-2.6-5.9-5.9s2.6-5.9,5.9-5.9s5.9,2.6,5.9,5.9S597.5,209.1,594.2,209.1z"/>
        </g>
        <g id="keyboard">
            <path fill="#FFFFFF" d="M426.1,306.2h128.4c2.6,0,4.7,2.1,4.7,4.7l0,0c0,1-2,0.7-2,0.7l-133.4,0.3c0,0-2.9,0.1-2.5-1l0,0 C421.3,308.3,423.5,306.2,426.1,306.2z"/>
            <path fill="#C4C4C4" d="M430.3,305.1h120.5c2.4,0,4.4,0.7,4.4,1.5l0,0c0,0.3-1.8,0.2-1.8,0.2l-125.2,0.1c0,0-2.7,0-2.4-0.3l0,0 C425.8,305.7,427.8,305.1,430.3,305.1z"/>
        </g>
        <g id="mouse">
            <path fill="#FFFFFF" d="M633,305.4h19.5c0.4,0,0.7,2.5,0.7,5.7l0,0c0,1.2-0.3,0.8-0.3,0.8l-20.3,0.3c0,0-0.4,0.1-0.4-1.2l0,0 C632.3,308,632.6,305.4,633,305.4z"/>
            <path fill="#C4C4C4" d="M643.8,307.8h-2.2c0,0-0.1-0.8-0.1-1.8l0,0c0-0.4,0-0.3,0-0.3l2.3-0.1c0,0,0.1,0,0,0.4l0,0 C643.9,307,643.9,307.8,643.8,307.8z"/>
        </g>
        <g id="gulp">
            <ellipse fill="none" cx="729.7" cy="310.3" rx="9.6" ry="3"/>
            <polygon fill="#EB4A4A" points="719.3,298.7 720.1,311.7 739.4,311.7 739.6,298.7 "/>
            <polygon fill="#DB4646" points="719.3,298.7 739.6,298.7 743,292.7 715.8,292.7 "/>
            <polygon fill="#EB4A4A" points="711.8,254.8 715.6,291.7 743.4,291.7 747.5,254.6 "/>
            <polygon fill="#FFFFFF" points="715.8,292.7 715.6,291.7 743.4,291.7 743,292.7 "/>
            <rect x="711.8" y="253.2" fill="#EB4A4A" width="35.7" height="0.8"/>
            <path fill="#EB4A4A" d="M747.4,236.2l-8.6,9.1l-2.1,8.8c-0.1,0.3-0.4,0.6-0.8,0.6l-2.1,0.1c-0.5,0-0.9-0.5-0.8-1l2.8-10l9.4-9.7 c0.4-0.4,0.8-0.2,1.3,0.2l1.1,1C747.6,235.5,747.6,235.9,747.4,236.2z"/>
            <rect x="711.8" y="254" fill="#FFFFFF" width="35.7" height="0.8"/>
        </g>
    </g>
    <g id="clock" class="clock">
        <circle class="shadow" cx="779" cy="98.4" r="32"/>
        <circle class="outer" cx="777" cy="96.4" r="32"/>
        <circle class="inner" cx="777" cy="96.4" r="29"/>
        <circle class="shadow" cx="777" cy="96.4" r="29"/>
        <circle class="inner" cx="778" cy="97.4" r="27"/>
        <circle class="point--quarter" cx="799" cy="96.4" r="1.5"/>
        <circle class="point--quarter" cx="754" cy="96.4" r="1.5"/>
        <circle class="point--quarter" cx="777" cy="74.4" r="1.5"/>
        <circle class="point--quarter" cx="777" cy="119.4" r="1.5"/>
        <circle class="point" cx="787" cy="78.4" r="1"/>
        <circle class="point" cx="795" cy="86.4" r="1"/>
        <circle class="point" cx="795" cy="106.4" r="1"/>
        <circle class="point" cx="786" cy="115.4" r="1"/>
        <circle class="point" cx="766" cy="78.4" r="1"/>
        <circle class="point" cx="758" cy="86.4" r="1"/>
        <circle class="point" cx="758" cy="106.4" r="1"/>
        <circle class="point" cx="766" cy="115.4" r="1"/>
        <line class="hands hands--hours" x1="777" y1="102.4" x2="777" y2="77.4" id="hours"/>
        <line class="hands hands--minute" x1="777" y1="102.4" x2="777" y2="74.4" id="minutes"/>
        <line class="hands hands--seconds"  x1="777" y1="102.4" x2="777" y2="72.5" id="seconds"/>
        <circle class="circle" cx="777" cy="96.4" r="2"/>
    </g>
    <g id="shelf">
        <g>
            <path fill="#FABA2C" d="M826,157.7v41h11v-41H826z M831.4,193.8c-1.6,0-2.9-1.3-2.9-2.9s1.3-2.9,2.9-2.9s2.9,1.3,2.9,2.9 S833,193.8,831.4,193.8z"/>
            <rect x="828.3" y="163.3" fill="#FFFFFF" width="6.3" height="8.9"/>
            <rect x="829.3" y="166.3" fill="#C4C4C4" width="4.1" height="1.4"/>
            <rect x="829.3" y="168.3" fill="#C4C4C4" width="4.1" height="1.4"/>
        </g>
        <g>
            <path fill="#FABA2C" d="M838,157.7v41h11v-41H838z M843.4,193.8c-1.6,0-2.9-1.3-2.9-2.9s1.3-2.9,2.9-2.9s2.9,1.3,2.9,2.9 S845,193.8,843.4,193.8z"/>
            <rect x="840.3" y="163.3" fill="#FFFFFF" width="6.3" height="8.9"/>
            <rect x="841.3" y="166.3" fill="#C4C4C4" width="4.1" height="1.4"/>
            <rect x="841.3" y="168.3" fill="#C4C4C4" width="4.1" height="1.4"/>
        </g>
        <g>
            <path fill="#44B29D" d="M850,157.7v41h11v-41H850z M855.4,193.8c-1.6,0-2.9-1.3-2.9-2.9s1.3-2.9,2.9-2.9s2.9,1.3,2.9,2.9 S857,193.8,855.4,193.8z"/>
            <rect x="852.3" y="163.3" fill="#FFFFFF" width="6.3" height="8.9"/>
            <rect x="853.3" y="166.3" fill="#C4C4C4" width="4.1" height="1.4"/>
            <rect x="853.3" y="168.3" fill="#C4C4C4" width="4.1" height="1.4"/>
        </g>
        <g>
            <path fill="#44B29D" d="M863,157.7v41h11v-41H863z M868,193.8c-1.6,0-2.9-1.3-2.9-2.9s1.3-2.9,2.9-2.9s2.9,1.3,2.9,2.9 S869.6,193.8,868,193.8z"/>
            <rect x="865" y="163.3" fill="#FFFFFF" width="6.3" height="8.9"/>
            <rect x="866.1" y="166.3" fill="#C4C4C4" width="4.1" height="1.4"/>
            <rect x="866.1" y="168.3" fill="#C4C4C4" width="4.1" height="1.4"/>
        </g>
        <g>
            <path class="dark-blue" d="M875,157.7v41h11v-41H875z M880.4,193.8c-1.6,0-2.9-1.3-2.9-2.9s1.3-2.9,2.9-2.9s2.9,1.3,2.9,2.9 S882,193.8,880.4,193.8z"/>
            <rect x="877.3" y="163.3" fill="#FFFFFF" width="6.3" height="8.9"/>
            <rect x="878.3" y="166.3" fill="#C4C4C4" width="4.1" height="1.4"/>
            <rect x="878.3" y="168.3" fill="#C4C4C4" width="4.1" height="1.4"/>
        </g>
        <g>
            <path class="dark-blue" d="M817.6,160.6l-26.9,30.9l8.3,7.2l26.9-30.9L817.6,160.6z M798,191.3c-1.2-1-1.3-2.9-0.3-4.1 s2.9-1.3,4.1-0.3c1.2,1,1.3,2.9,0.3,4.1C801,192.2,799.2,192.4,798,191.3z"/>
            <rect x="812" y="167.2" transform="matrix(0.7541 0.6568 -0.6568 0.7541 313.2004 -493.1263)" fill="#FFFFFF" width="6.3" height="8.9"/>
            <rect x="813.5" y="170.4" transform="matrix(0.7541 0.6568 -0.6568 0.7541 312.964 -493.5632)" fill="#C4C4C4" width="4.1" height="1.4"/>
            <rect x="812.2" y="171.9" transform="matrix(0.7541 0.6568 -0.6568 0.7541 313.6315 -492.3296)" fill="#C4C4C4" width="4.1" height="1.4"/>
        </g>
        <ellipse fill="#44B29D" cx="922.2" cy="158.9" rx="5.5" ry="2.4"/>
        <ellipse fill="#44B29D" cx="934.2" cy="158.9" rx="5.5" ry="2.4"/>
        <ellipse fill="#44B29D" cx="922.2" cy="166.9" rx="5.5" ry="2.4"/>
        <ellipse fill="#44B29D" cx="934.2" cy="166.9" rx="5.5" ry="2.4"/>
        <line fill="none" stroke="#44B29D" stroke-width="2" stroke-miterlimit="10" x1="928" y1="178.7" x2="928" y2="151.7"/>
        <circle fill="#FFFFFF" cx="932.3" cy="136.2" r="5.7"/>
        <circle fill="#FFFFFF" cx="935.3" cy="143.2" r="5.7"/>
        <circle fill="#FFFFFF" cx="931.3" cy="149.2" r="5.7"/>
        <circle fill="#FFFFFF" cx="925.3" cy="149.2" r="5.7"/>
        <circle fill="#FFFFFF" cx="920.3" cy="143.2" r="5.7"/>
        <circle fill="#FFFFFF" cx="924.3" cy="136.2" r="5.7"/>
        <circle fill="#FABA2C" cx="928.3" cy="143.2" r="5.7"/>
        <polygon fill="#EB4A4A" points="916,198 940.7,198 943.7,174.5 913,174.5 "/>
        <polygon fill="#C4C4C4" points="942.8,181.4 913.9,181.4 913.5,178.7 943.1,178.7 "/>
        <rect class="dark-blue" width="200" height="8" x="752" y="197" rx="2" ry="2"/>
        <polygon class="shadow" points="752,197 952,197 955,200 955,208 755,208 752,205"/>
    </g>
    <g class="pinboard">
        <g>
            <polygon class="shadow" points="0,74.4 132.3,74.4 135.3,77.4 135.3,239.4 3,239.4 0,236.4" />
            <rect y="74.4" class="dark-blue" width="132.3" height="162"/>
            <rect x="4" y="78.7" fill="#F2F0EB" width="124" height="154"/>
            <rect x="4" y="78.7" class="shadow" width="124" height="154"/>
            <rect x="7" y="81.7" fill="#F2F0EB" width="121" height="151"/>
        </g>
        <g>
            <rect x="20.7" y="131.5" class="shadow" width="23.3" height="27.2"/>
            <rect x="19.7" y="130.5" fill="#44B29D" width="23.3" height="27.2"/>
            <circle fill="#EB4A4A" cx="31.4" cy="130.5" r="2.9"/>
        </g>
        <g>
            <rect x="58.7" y="107.8" class="shadow" width="24.7" height="28.1"/>
            <rect x="57.7" y="106.8" fill="#FABA2C" width="24.7" height="28.1"/>
            <circle fill="#EB4A4A" cx="70.4" cy="106.5" r="2.9"/>
        </g>
        <g>
            <rect x="89.3" y="142.7" class="shadow" width="22" height="32.1"/>
            <rect x="88.3" y="141.7" fill="#FFFFFF" width="22" height="32.1"/>
            <circle fill="#EB4A4A" cx="99.4" cy="141.5" r="2.9"/>
        </g>
    </g>
</svg>
