<svg xmlns="http://www.w3.org/2000/svg" xmlns:xlink="http://www.w3.org/1999/xlink" x="0px" y="0px"
	 viewBox="0 0 3000 1000" xml:space="preserve">
<style type="text/css">
	.st1{opacity:0.49;fill:#FFFFFF;}
	.st2{opacity:0.49;}
	.st3{fill:#FFFFFF;}
	.st4{fill:none;}
	.st5{opacity:0.49;fill:none;stroke:#FFFFFF;stroke-width:3;stroke-miterlimit:10;}
	.st6{opacity:0.49;fill:none;stroke:#FFFFFF;stroke-width:6;stroke-miterlimit:10;}
	.st7{fill:#FFFBFC;}
	.st8{opacity:0.45;fill:#FFFFFF;}
	.st9{fill:none;stroke:#333333;stroke-width:9;stroke-miterlimit:10;}
	.st10{fill:#333333;}
	.st11{opacity:0.79;fill:#FFFFFF;}
	.st12{fill:none;stroke:#FFFFFF;stroke-width:3;stroke-miterlimit:10;stroke-dasharray:11.9686,11.9686;}
	.st13{fill:#36C2D6;}
	.st14{fill:#0297A7;}
	.st15{fill:#F47C43;}
	.st16{fill:#515251;}
	.st17{fill:none;stroke:#FFFFFF;stroke-width:3;stroke-miterlimit:10;}
	.st18{fill:none;stroke:#FFFFFF;stroke-width:6;stroke-miterlimit:10;}
	.st19{fill:none;stroke:#FFFFFF;stroke-width:3;stroke-miterlimit:10;stroke-dasharray:12;}
	.st20{fill:#878EA2;}
	.st21{fill:none;stroke:#333333;stroke-width:12;stroke-miterlimit:10;}
	.st22{fill:#D3DDDA;}
	.st23{fill:#653F18;}
	.st24{fill:#F9BD19;}
	.st25{fill:#6C2E1C;}
	.st26{fill:none;stroke:#BDCED1;stroke-width:3;stroke-miterlimit:10;stroke-dasharray:6;}
	.st27{fill:#89D3E2;}
	.st28{fill:#00ACC1;}
	.st29{fill:#5AC7DA;}
	.st30{fill:#09BCD4;}
	.st31{fill:none;stroke:#BDCED1;stroke-width:3;stroke-miterlimit:10;}
	.st32{fill:none;stroke:#F7BC1A;stroke-width:3;stroke-miterlimit:10;}
</style>
<g transform="translate(0, -500)">
	<path class="st1" d="M521,674H363.9c-17.3,0-31.4,14.1-31.4,31.4V851c0,17.3,14.1,31.4,31.4,31.4H521
		c17.3,0,31.4-14.1,31.4-31.4V705.4C552.5,688.1,538.3,674,521,674z M537.6,851c0,9.1-7.4,16.5-16.5,16.5H363.9
		c-9.1,0-16.5-7.4-16.5-16.5V705.4c0-9.1,7.4-16.5,16.5-16.5h48v92.6h-45.5l72,69.5l76.1-68.6h-49.6l2.3-93.5H521
		c9.1,0,16.5,7.4,16.5,16.5V851z"/>
	<g>
		<path class="st1" d="M2544.2,1160.9l-42-38l97.3-107.5l42,38L2544.2,1160.9z M2507.9,1122.7l36,32.6l91.9-101.5
			l-36-32.6L2507.9,1122.7z"/>
			<rect x="2624.1" y="997" transform="matrix(0.6712 -0.7413 0.7413 0.6712 106.8974 2287.6611)" class="st1" width="16.2" height="52.6"/>
		<g class="st2">
			<path class="st3" d="M2666,1028.1c2.9-4.3,4.6-9.5,4.6-15c0-14.9-12.1-26.9-26.9-26.9c-6.5,0-12.5,2.3-17.2,6.2
				L2666,1028.1z"/>
		</g>
		<polygon class="st1" points="2496.3,1171.1 2544.2,1160.9 2502.2,1122.9 		"/>
	</g>
	<g>
		<path class="st1" d="M1403.1,1076.4v271.7h351.1v-271.7H1403.1z M1644.2,1085.9h38.9v33.9h-38.9V1085.9z
			 M1735.6,1132.2V1291h-311.4v-158.8H1735.6z M1589.6,1085.9h38.9v33.9h-38.9V1085.9z M1535,1085.9h38.9v33.9H1535V1085.9z
			 M1475.5,1085.9h38.9v33.9h-38.9V1085.9z M1420.9,1085.9h38.9v33.9h-38.9V1085.9z M1459.8,1338.1h-38.9v-33.9h38.9V1338.1z
			 M1514.3,1338.1h-38.9v-33.9h38.9V1338.1z M1573.9,1338.1H1535v-33.9h38.9V1338.1z M1628.5,1338.1h-38.9v-33.9h38.9V1338.1z
			 M1683.1,1338.1h-38.9v-33.9h38.9V1338.1z M1737.7,1338.1h-38.9v-33.9h38.9V1338.1z M1737.7,1119.8h-38.9v-33.9h38.9V1119.8z"/>
		<polygon class="st1" points="1554.5,1262.5 1554.5,1160.7 1635.1,1211.6 		"/>
	</g>
	<g>
		<g>
			<path class="st4" d="M2608.9,1132.2v169.1c0,5.5,4.5,10,9.9,10h181.2c5.5,0,9.9-4.5,9.9-10v-224.9
				c0-5.5-4.5-10-9.9-10H2671v65.8H2608.9z"/>
			<path class="st1" d="M2800.1,1056.5H2671l-9.4,9.9l-52.6,55.3l-9.9,10.4v169.1c0,10.9,8.9,19.9,19.9,19.9h181.2
				c10.9,0,19.9-8.9,19.9-19.9v-224.9C2819.9,1065.5,2811,1056.5,2800.1,1056.5z M2810,1301.3c0,5.5-4.5,10-9.9,10h-181.2
				c-5.5,0-9.9-4.5-9.9-10v-169.1h62.1v-65.8h129.1c5.5,0,9.9,4.5,9.9,10V1301.3z"/>
		</g>
		<line class="st5" x1="2691.3" y1="1109" x2="2781.8" y2="1109"/>
		<line class="st5" x1="2691.3" y1="1134.3" x2="2781.8" y2="1134.3"/>
		<line class="st5" x1="2781.8" y1="1159.7" x2="2640.8" y2="1159.7"/>
		<line class="st5" x1="2781.8" y1="1199.2" x2="2640.8" y2="1199.2"/>
		<line class="st5" x1="2781.8" y1="1243" x2="2640.8" y2="1243"/>
		<line class="st6" x1="2781.8" y1="1270.5" x2="2640.8" y2="1270.5"/>
	</g>
	<g >
			<rect x="281.1" y="813" transform="matrix(0.7604 0.6494 -0.6494 0.7604 611.0455 -8.2425)" class="st7" width="71.2" height="22.3"/>
		<path class="st8" d="M229.1,826.2c-43.3,0-78.6-35.2-78.6-78.6s35.2-78.6,78.6-78.6s78.6,35.2,78.6,78.6
			S272.4,826.2,229.1,826.2z"/>
		<circle class="st9" cx="229.1" cy="747.6" r="83.5"/>
		<path class="st10" d="M428,945.8l-111.3-91c-0.4-0.3-0.5-1-0.1-1.4l28.5-34.8c0.3-0.4,1-0.5,1.4-0.1l111.3,91
			c0.4,0.3,0.5,1,0.1,1.4l-28.5,34.8C429,946.1,428.4,946.1,428,945.8z"/>
		<path class="st11" d="M182.7,752.6c0-31.1,25.2-56.2,56.2-56.2c7.1,0,13.8,1.4,20,3.7c-8.7-5.5-18.9-8.7-30-8.7
			c-31.1,0-56.2,25.2-56.2,56.2c0,24,15.1,44.4,36.2,52.5C193.3,790.1,182.7,772.6,182.7,752.6z"/>
	</g>
	<g>
		<circle class="st12" cx="250.6" cy="1061.1" r="125.7"/>
	</g>
	<g >
		<rect x="191" y="1069.3" class="st3" width="251.4" height="255.6"/>
		<rect x="205.1" y="1084.2" class="st13" width="224.1" height="229.9"/>
		<polygon class="st3" points="269.6,1162 312.6,1234.7 224.9,1234.7 		"/>
		<polygon class="st14" points="355.6,1150.4 299.6,1234.7 408.4,1234.7 		"/>
	</g>
	<g>
		<rect x="2490.3" y="823.7" class="st13" width="330" height="189.4"/>
		<rect x="2820.3" y="823.7" class="st3" width="49.6" height="189.4"/>
		<rect x="2655.3" y="879.1" class="st3" width="130.3" height="25.6"/>
		<rect x="2655.3" y="930.4" class="st3" width="130.3" height="25.6"/>
		<g>
			<path class="st3" d="M2546.9,886.7v6.9c0,1.2-0.4,2.2-1.1,2.9c-0.7,0.7-1.7,1-3,1c-1.3,0-2.3-0.3-3-1
				c-0.7-0.7-1.1-1.7-1.1-2.9v-6.8h1.2v6.9c0,0.9,0.2,1.6,0.7,2c0.5,0.5,1.2,0.7,2.1,0.7c0.9,0,1.6-0.2,2.1-0.7s0.7-1.2,0.7-2.1
				v-6.9H2546.9z"/>
			<path class="st3" d="M2555.7,894.5c0,0.9-0.3,1.7-1,2.2s-1.6,0.8-2.8,0.8c-1.3,0-2.2-0.2-2.9-0.5v-1.2
				c0.4,0.2,0.9,0.3,1.4,0.4c0.5,0.1,1,0.2,1.5,0.2c0.8,0,1.4-0.2,1.9-0.5c0.4-0.3,0.6-0.7,0.6-1.3c0-0.4-0.1-0.7-0.2-0.9
				c-0.1-0.2-0.4-0.5-0.7-0.7c-0.3-0.2-0.9-0.4-1.6-0.7c-1-0.4-1.7-0.8-2.1-1.3c-0.4-0.5-0.6-1.1-0.6-1.9c0-0.8,0.3-1.5,0.9-2
				s1.4-0.7,2.4-0.7c1.1,0,2,0.2,2.9,0.6l-0.4,1.1c-0.9-0.4-1.7-0.6-2.6-0.6c-0.7,0-1.2,0.1-1.5,0.4c-0.4,0.3-0.6,0.7-0.6,1.2
				c0,0.4,0.1,0.7,0.2,0.9c0.1,0.2,0.4,0.5,0.7,0.6c0.3,0.2,0.8,0.4,1.5,0.7c1.1,0.4,1.9,0.8,2.3,1.3
				C2555.5,893.2,2555.7,893.7,2555.7,894.5z"/>
			<path class="st3" d="M2563.8,897.3h-5.9v-10.6h5.9v1.1h-4.7v3.4h4.4v1.1h-4.4v3.9h4.7V897.3z"/>
			<path class="st3" d="M2567.4,892.9v4.4h-1.2v-10.6h2.9c1.3,0,2.3,0.2,2.9,0.7c0.6,0.5,0.9,1.3,0.9,2.3
				c0,1.4-0.7,2.4-2.1,2.8l2.9,4.8h-1.5l-2.6-4.4H2567.4z M2567.4,891.8h1.7c0.9,0,1.5-0.2,1.9-0.5c0.4-0.3,0.6-0.9,0.6-1.6
				c0-0.7-0.2-1.2-0.6-1.5c-0.4-0.3-1.1-0.5-2-0.5h-1.6V891.8z"/>
		</g>
		<g>
			<path class="st3" d="M2545.6,940.2c0,1.1-0.4,1.9-1.1,2.5c-0.7,0.6-1.8,0.9-3.2,0.9h-1.3v4.2h-1.2v-10.6h2.8
				C2544.3,937.1,2545.6,938.2,2545.6,940.2z M2540.1,942.5h1.1c1.1,0,1.9-0.2,2.4-0.5c0.5-0.4,0.7-0.9,0.7-1.7
				c0-0.7-0.2-1.2-0.7-1.6c-0.5-0.3-1.2-0.5-2.2-0.5h-1.4V942.5z"/>
			<path class="st3" d="M2554.5,947.7l-1.3-3.4h-4.3l-1.3,3.4h-1.3l4.2-10.7h1l4.2,10.7H2554.5z M2552.8,943.3
				l-1.2-3.3c-0.2-0.4-0.3-0.9-0.5-1.5c-0.1,0.5-0.3,1-0.5,1.5l-1.3,3.3H2552.8z"/>
			<path class="st3" d="M2563.3,944.9c0,0.9-0.3,1.7-1,2.2s-1.6,0.8-2.8,0.8c-1.3,0-2.2-0.2-2.9-0.5v-1.2
				c0.4,0.2,0.9,0.3,1.4,0.4c0.5,0.1,1,0.2,1.5,0.2c0.8,0,1.4-0.2,1.9-0.5c0.4-0.3,0.6-0.7,0.6-1.3c0-0.4-0.1-0.7-0.2-0.9
				c-0.1-0.2-0.4-0.5-0.7-0.7c-0.3-0.2-0.9-0.4-1.6-0.7c-1-0.4-1.7-0.8-2.1-1.3c-0.4-0.5-0.6-1.1-0.6-1.9c0-0.8,0.3-1.5,0.9-2
				s1.4-0.7,2.4-0.7c1.1,0,2,0.2,2.9,0.6l-0.4,1.1c-0.9-0.4-1.7-0.6-2.6-0.6c-0.7,0-1.2,0.1-1.5,0.4c-0.4,0.3-0.6,0.7-0.6,1.2
				c0,0.4,0.1,0.7,0.2,0.9c0.1,0.2,0.4,0.5,0.7,0.6c0.3,0.2,0.8,0.4,1.5,0.7c1.1,0.4,1.9,0.8,2.3,1.3
				C2563.1,943.6,2563.3,944.2,2563.3,944.9z"/>
			<path class="st3" d="M2571.5,944.9c0,0.9-0.3,1.7-1,2.2s-1.6,0.8-2.8,0.8c-1.3,0-2.2-0.2-2.9-0.5v-1.2
				c0.4,0.2,0.9,0.3,1.4,0.4c0.5,0.1,1,0.2,1.5,0.2c0.8,0,1.4-0.2,1.9-0.5c0.4-0.3,0.6-0.7,0.6-1.3c0-0.4-0.1-0.7-0.2-0.9
				c-0.1-0.2-0.4-0.5-0.7-0.7c-0.3-0.2-0.9-0.4-1.6-0.7c-1-0.4-1.7-0.8-2.1-1.3c-0.4-0.5-0.6-1.1-0.6-1.9c0-0.8,0.3-1.5,0.9-2
				s1.4-0.7,2.4-0.7c1.1,0,2,0.2,2.9,0.6l-0.4,1.1c-0.9-0.4-1.7-0.6-2.6-0.6c-0.7,0-1.2,0.1-1.5,0.4c-0.4,0.3-0.6,0.7-0.6,1.2
				c0,0.4,0.1,0.7,0.2,0.9c0.1,0.2,0.4,0.5,0.7,0.6c0.3,0.2,0.8,0.4,1.5,0.7c1.1,0.4,1.9,0.8,2.3,1.3
				C2571.2,943.6,2571.5,944.2,2571.5,944.9z"/>
			<path class="st3" d="M2582.9,947.7h-1.2l-2.1-7.1c-0.1-0.3-0.2-0.7-0.3-1.2c-0.1-0.5-0.2-0.8-0.2-0.9
				c-0.1,0.6-0.3,1.3-0.5,2.1l-2.1,7.1h-1.2l-2.8-10.6h1.3l1.7,6.6c0.2,0.9,0.4,1.8,0.5,2.5c0.1-0.9,0.3-1.8,0.6-2.6l1.9-6.5h1.3
				l2,6.5c0.2,0.8,0.4,1.6,0.6,2.5c0.1-0.7,0.3-1.5,0.5-2.5l1.7-6.5h1.3L2582.9,947.7z"/>
			<path class="st3" d="M2596.6,942.4c0,1.7-0.4,3-1.3,4c-0.9,1-2.1,1.5-3.6,1.5c-1.6,0-2.8-0.5-3.6-1.4
				c-0.9-1-1.3-2.3-1.3-4.1c0-1.7,0.4-3.1,1.3-4c0.8-0.9,2.1-1.4,3.6-1.4c1.5,0,2.7,0.5,3.6,1.5
				C2596.2,939.4,2596.6,940.7,2596.6,942.4z M2588.2,942.4c0,1.4,0.3,2.5,0.9,3.3c0.6,0.7,1.5,1.1,2.7,1.1c1.2,0,2.1-0.4,2.7-1.1
				c0.6-0.7,0.9-1.8,0.9-3.3c0-1.4-0.3-2.5-0.9-3.3c-0.6-0.7-1.5-1.1-2.7-1.1c-1.2,0-2.1,0.4-2.7,1.1
				C2588.5,939.9,2588.2,941,2588.2,942.4z"/>
			<path class="st3" d="M2600.2,943.3v4.4h-1.2v-10.6h2.9c1.3,0,2.3,0.2,2.9,0.7c0.6,0.5,0.9,1.3,0.9,2.3
				c0,1.4-0.7,2.4-2.1,2.8l2.9,4.8h-1.5l-2.6-4.4H2600.2z M2600.2,942.3h1.7c0.9,0,1.5-0.2,1.9-0.5c0.4-0.3,0.6-0.9,0.6-1.6
				c0-0.7-0.2-1.2-0.6-1.5c-0.4-0.3-1.1-0.5-2-0.5h-1.6V942.3z"/>
			<path class="st3" d="M2616.7,942.3c0,1.8-0.5,3.1-1.4,4c-0.9,0.9-2.3,1.4-4.1,1.4h-2.9v-10.6h3.3
				c1.6,0,2.9,0.5,3.8,1.4C2616.2,939.4,2616.7,940.7,2616.7,942.3z M2615.4,942.4c0-1.4-0.3-2.4-1-3.1c-0.7-0.7-1.7-1.1-3.1-1.1
				h-1.8v8.5h1.5c1.5,0,2.6-0.4,3.3-1.1C2615,944.9,2615.4,943.8,2615.4,942.4z"/>
		</g>
		<g>
			<path class="st15" d="M2857.6,970.8h-21.3v-3.5h18.3v-9h3V970.8z"/>
			<path class="st15" d="M2847,935.8c3.5,0,6.1,0.9,8.1,2.6c1.9,1.7,2.9,4.2,2.9,7.3c0,3.2-0.9,5.7-2.9,7.4
				c-1.9,1.7-4.6,2.6-8.1,2.6c-3.5,0-6.2-0.9-8.1-2.6c-1.9-1.7-2.8-4.2-2.8-7.4c0-3.2,1-5.6,2.9-7.3
				C2840.8,936.6,2843.5,935.8,2847,935.8z M2847,952c2.6,0,4.6-0.5,6-1.6c1.3-1.1,2-2.6,2-4.7c0-2.1-0.7-3.6-2-4.7
				c-1.3-1.1-3.3-1.6-6-1.6c-2.6,0-4.6,0.5-5.9,1.6s-2,2.6-2,4.7c0,2.1,0.7,3.7,2,4.7C2842.4,951.5,2844.4,952,2847,952z"/>
			<path class="st15" d="M2846.1,922.5v-7.8h10.7c0.4,1.3,0.7,2.5,0.9,3.7c0.2,1.2,0.3,2.4,0.3,3.8
				c0,3.2-0.9,5.7-2.9,7.4c-1.9,1.7-4.6,2.6-8.1,2.6c-3.4,0-6.1-1-8-3c-1.9-2-2.9-4.7-2.9-8.1c0-2.2,0.4-4.3,1.3-6.3l2.9,1.2
				c-0.8,1.7-1.2,3.5-1.2,5.2c0,2.3,0.7,4.1,2.1,5.4c1.4,1.3,3.4,2,5.8,2c2.6,0,4.6-0.6,5.9-1.8c1.3-1.2,2-2.9,2-5.1
				c0-1.1-0.1-2.3-0.4-3.6h-5.5v4.4H2846.1z"/>
			<path class="st15" d="M2857.6,909.6h-21.3v-3.5h21.3V909.6z"/>
			<path class="st15" d="M2857.6,882.8v4.3l-16.9,10.5v0.1l0.9-0.1c1.8-0.1,3.5-0.2,4.9-0.2h11v3.2h-21.3v-4.2
				l16.9-10.4v-0.1c-0.2,0-1,0.1-2.4,0.1c-1.4,0.1-2.5,0.1-3.3,0.1h-11.1v-3.2H2857.6z"/>
		</g>
	</g>
	<g>
		<rect x="2493" y="698" class="st10" width="376.9" height="101.1"/>
		<path class="st16" d="M2869.9,698.8c0.1-36.5-7.2-47.7-28.1-49.5h-193.7c-39.7,0-44.5,24.8-48.2,48.7h2.9
			L2869.9,698.8z"/>
		<g>
			<path class="st3" d="M2672.9,766.3h-5.5v-15.2h-15.5v15.2h-5.5v-33.7h5.5v13.8h15.5v-13.8h5.5V766.3z"/>
			<path class="st3" d="M2711.7,749.5c0,5.5-1.4,9.7-4.1,12.8c-2.7,3-6.6,4.6-11.7,4.6c-5.1,0-9-1.5-11.7-4.5
				c-2.7-3-4.1-7.3-4.1-12.9s1.4-9.8,4.1-12.8c2.7-3,6.7-4.5,11.7-4.5c5,0,8.9,1.5,11.6,4.5C2710.3,739.7,2711.7,744,2711.7,749.5z
				 M2685.9,749.5c0,4.1,0.8,7.3,2.5,9.4c1.7,2.1,4.2,3.2,7.4,3.2c3.3,0,5.7-1.1,7.4-3.2s2.5-5.3,2.5-9.5c0-4.1-0.8-7.3-2.5-9.4
				s-4.1-3.2-7.4-3.2c-3.3,0-5.8,1.1-7.5,3.2C2686.8,742.2,2685.9,745.3,2685.9,749.5z"/>
			<path class="st3" d="M2733.5,766.3l-9.8-28.1h-0.2c0.3,4.2,0.4,8.1,0.4,11.7v16.4h-5v-33.7h7.8l9.4,26.8h0.1
				l9.6-26.8h7.8v33.7h-5.3v-16.7c0-1.7,0-3.9,0.1-6.5c0.1-2.7,0.2-4.3,0.2-4.9h-0.2l-10.1,28.1H2733.5z"/>
			<path class="st3" d="M2781.5,766.3h-19v-33.7h19v4.7h-13.5v9.2h12.7v4.6h-12.7v10.6h13.5V766.3z"/>
		</g>
		<g>
			<polyline class="st17" points="2545.8,748.5 2573.7,725.3 2598.4,748.5"/>
			<polyline class="st17" points="2591.5,741.4 2591.5,766.8 2554.4,766.8 2554.4,741.4"/>
			<rect x="2563.6" y="748.5" class="st3" width="18.6" height="18.3"/>
		</g>
	</g>
	<g >
		<line class="st18" x1="602.1" y1="1304.2" x2="765.8" y2="1304.2"/>
		<line class="st17" x1="722" y1="1339.8" x2="803.9" y2="1339.8"/>
	</g>
	<g >
		<line class="st17" x1="2445.2" y1="835.7" x2="2342.3" y2="835.7"/>
		<line class="st17" x1="2393.7" y1="866.7" x2="2284.4" y2="866.7"/>
	</g>
	<g >
		<line class="st19" x1="1851.8" y1="1028.1" x2="1718.2" y2="1028.1"/>
		<line class="st19" x1="1718.2" y1="1018" x2="1718.2" y2="918.8"/>
		<circle class="st3" cx="1718.2" cy="918.8" r="11.8"/>
	</g>
	<g>
		<path class="st18" d="M775.8,1173.5c0,45.9,30.2,69.5,51.3,69.5c33.5,0,434.2,0,481.4,0
			c28.5,0,56.2-39.7,56.2-65.3s0-277.9,0-307.1c0-23.3,25-63,58-63c33,0,18.1,0,49.5,0s57.9,30.1,57.9,58s0,78.8,0,78.8"/>
		<path class="st3" d="M1486.7,926.2h85.6c13.2,0,24,10.8,24,24v189c0,13.2-10.8,24-24,24h-85.6
			c-13.2,0-24-10.8-24-24v-189C1462.7,937,1473.5,926.2,1486.7,926.2z"/>
		<path class="st20" d="M1527.2,948h5.7c2.8,0,5,2.3,5,5v24.7c0,2.8-2.3,5-5,5h-5.7c-2.8,0-5-2.3-5-5V953
			C1522.2,950.2,1524.5,948,1527.2,948z"/>
	</g>
	<g>
		<circle class="st14" cx="2390.6" cy="1320.6" r="12"/>
		<rect x="2378.6" y="1188.8" class="st3" width="24" height="132.3"/>
		<circle class="st14" cx="2387.7" cy="965.3" r="34.7"/>
		<path class="st13" d="M2387,985.2c-10.9-0.4-19.5-9.7-19.1-20.6c0.4-10.9,9.7-19.5,20.6-19.1
			c10.9,0.4,19.5,9.7,19.1,20.6C2407.2,977,2397.9,985.6,2387,985.2z"/>
		<rect x="2378.6" y="1056.5" class="st13" width="24" height="136.1"/>
		<polygon class="st14" points="2378.6,1056.5 2390.3,1032.9 2402.6,1056.5 		"/>
		<path class="st14" d="M2393.3,1116.1h-5.9c-0.4,0-0.8-0.3-0.8-0.8v-42.7c0-0.4,0.3-0.8,0.8-0.8h5.9
			c0.4,0,0.8,0.3,0.8,0.8v42.7C2394,1115.7,2393.7,1116.1,2393.3,1116.1z"/>
	</g>
	<g>
		<path class="st3" d="M2225.5,725.9c-1.5-42.5-36.4-76.6-79.3-76.6c-30.9,0-57.6,17.7-70.7,43.4
			c-6-2.3-12.6-3.6-19.4-3.6c-22,0-41,13.1-49.6,31.9c-1.7-0.1-3.3-0.3-5-0.3c-34.3,0-62,27.8-62,62s27.8,62,62,62h192v-0.1
			c35.2,0,63.7-28.5,63.7-63.7C2257.3,757.4,2244.5,736.9,2225.5,725.9z"/>
		<line class="st21" x1="2106.5" y1="799.1" x2="2106.5" y2="886.5"/>
		<circle class="st10" cx="2106.5" cy="886.5" r="20.5"/>
	</g>
	<g>
		<path class="st10" d="M1902.1,947.4h423.8c1.5,0,2.7,1.2,2.7,2.7v351.4c0,1.5-1.2,2.7-2.7,2.7h-423.8
			c-1.5,0-2.7-1.2-2.7-2.7V950.1C1899.4,948.6,1900.6,947.4,1902.1,947.4z"/>
		<rect x="2008.5" y="977.1" class="st22" width="289.1" height="285.3"/>
		<rect x="1918.8" y="977.1" class="st22" width="20.7" height="64.9"/>
		<rect x="1948.6" y="977.1" class="st22" width="43" height="23"/>
		<rect x="1948.6" y="1009.6" class="st22" width="14.1" height="32.5"/>
		<rect x="1977.5" y="1009.6" class="st22" width="14.1" height="32.5"/>
		<circle class="st22" cx="1955.6" cy="1073.9" r="23.2"/>
	</g>
	<g>
		<ellipse class="st23" cx="1705.9" cy="859.7" rx="90.3" ry="20.9"/>
		<ellipse class="st3" cx="1704.6" cy="847.3" rx="115.4" ry="22.5"/>
		<path class="st3" d="M1755.1,558.6h71.1c2.8,0,5,2.3,5,5v18.1c0,2.8-2.3,5-5,5h-71.1c-2.8,0-5-2.3-5-5v-18.1
			C1750.1,560.9,1752.3,558.6,1755.1,558.6z"/>
		<path class="st3" d="M1732.5,605.5h50.4c2.8,0,5,2.3,5,5v7c0,2.8-2.3,5-5,5h-50.4c-2.8,0-5-2.3-5-5v-7
			C1727.5,607.8,1729.8,605.5,1732.5,605.5z"/>
		<path class="st24" d="M1810.5,693.3c-0.1,0-0.1,0-0.2,0c1.2-8.2,2.1-16.6,2.8-25.2c0-0.1,0-0.1,0-0.2
			c0,0,0,0,0-0.1c-0.2-10.2-49.5-18.5-110.4-18.5c-60.8,0-110.2,8.3-110.4,18.5c0,0,0,0,0,0.1c0,0.1,0,0.1,0,0.2
			c8.5,105.9,54.7,186.8,110.3,186.8c30.5,0,58.2-24.3,78.3-63.8c0,0,0,0,0,0c20.3,0,66.1-38.8,66.1-59.8
			C1847.3,710.4,1830.8,693.3,1810.5,693.3z M1786.4,780.3c9.9-22.1,17.6-48.2,22.4-76.9c0.6,0,1.1-0.1,1.7-0.1
			c14.8,0,26.8,12.6,26.8,28.1C1837.3,744.5,1804.6,774.7,1786.4,780.3z"/>
		<path class="st25" d="M1702.3,679c-55.1,0-89.4-6.5-100.7-11.2c11.3-4.7,45.6-11.2,100.7-11.2
			c55.1,0,89.4,6.5,100.7,11.2C1791.7,672.6,1757.5,679,1702.3,679z"/>
	</g>
	<g >
		<rect x="502" y="697.1" class="st3" width="811.4" height="458.2"/>
		<rect x="502" y="1155.3" class="st10" width="811.4" height="31.4"/>
		<rect x="502" y="656.4" class="st10" width="811.4" height="41.6"/>
		<rect x="522.9" y="664.1" class="st3" width="611.6" height="24.8"/>
		<path class="st10" d="M693.6,642.2c0-12-9.8-21.8-21.8-21.8H502v36h186.2h5.3V642.2z"/>
		<rect x="810.5" y="760" class="st26" width="459.9" height="269.6"/>
		<rect x="1004" y="792.5" class="st26" width="224.1" height="190"/>
		<rect x="552.5" y="760" class="st13" width="202.6" height="47.6"/>
		<rect x="552.5" y="813.8" class="st26" width="202.6" height="45.5"/>
		<rect x="552.5" y="920.5" class="st26" width="202.6" height="39.7"/>
		<rect x="552.5" y="974.2" class="st26" width="202.6" height="115.8"/>
		<rect x="874.2" y="1056.9" class="st27" width="62" height="62.9"/>
		<rect x="1210" y="1056.9" class="st14" width="57.1" height="62.9"/>
		<rect x="1140.5" y="1056.9" class="st28" width="58.7" height="62.9"/>
		<rect x="942.8" y="1056.9" class="st29" width="61.2" height="62.9"/>
		<rect x="1011.5" y="1056.9" class="st13" width="57.1" height="62.9"/>
		<rect x="1076.8" y="1056.9" class="st30" width="57.7" height="62.9"/>
		<rect x="832" y="783.8" class="st13" width="145.6" height="205.3"/>
		<rect x="846.1" y="796.4" class="st3" width="119.1" height="168.7"/>
		<rect x="853.5" y="813.8" class="st24" width="105" height="36.4"/>
		<line class="st31" x1="856.8" y1="867.5" x2="958.5" y2="867.5"/>
		<line class="st31" x1="856.8" y1="880.8" x2="958.5" y2="880.8"/>
		<line class="st31" x1="856.8" y1="894.8" x2="958.5" y2="894.8"/>
		<line class="st31" x1="856.8" y1="940.3" x2="958.5" y2="940.3"/>
		<line class="st31" x1="856.8" y1="956" x2="958.5" y2="956"/>
		<line class="st32" x1="856.8" y1="909.7" x2="881.6" y2="909.7"/>
		<line class="st32" x1="893.2" y1="909.7" x2="936.2" y2="909.7"/>
	</g>
</g>
</svg>
