<svg version="1.1" xmlns="http://www.w3.org/2000/svg" viewBox="0 0 483.2 192.3">
	<g>
		<path fill="#f44336" d="M166.3,0h50.9v71.6h1.2L266.9,0h55.6l-57.4,78.1l68.6,114.2h-55.6l-42.6-74l-18.3,26v47.9h-50.9V0z"/>
		<path fill="#f44336" d="M107.9,0L88.3,84c-2.6,10.3-4.9,20.4-7,30.3c-2.1,10-4.5,20.2-7.2,30.6H73c-2.8-10.5-5.1-20.7-7.1-30.6
			c-2-10-4.3-20.1-7.1-30.3L38.6,0h-0.5L0,51.5l41.6,140.8h61.5L160,0H107.9z"/>
		<path fill="#f44336" d="M483.2,106.5c-0.3-0.3-0.6-0.7-0.8-1c-6.4-7.2-14.3-12.2-23.5-14.9v-1.2c3.7-1.4,7.1-3.5,10.1-6.5
			s5.5-6.4,7.5-10.2s3.7-7.9,4.9-12.1c1.2-4.2,1.8-8.4,1.8-12.6c0-9.5-1.9-17.3-5.8-23.5c-3.8-6.2-9-11.1-15.5-14.6
			s-14.2-6.1-23.1-7.5C429.9,0.7,420.4,0,410.4,0h-69.2v192.3h75.2c1.1,0,2.3,0,3.4,0L483.2,106.5z M392,39.1h17.2
			c8.3,0,14.4,1.3,18.3,3.8c3.9,2.6,5.9,6.8,5.9,12.7s-2,10.7-5.9,14.2c-3.9,3.6-10.1,5.3-18.3,5.3H392V39.1z M392,153.3v-40.8h20.7
			c10.1,0,17.5,1.5,22.3,4.4c4.8,3,7.2,8,7.2,15.1c0,14.2-9.9,21.3-29.6,21.3H392z"/>
	</g>
</svg>
