<svg xmlns="http://www.w3.org/2000/svg" viewBox="0 0 1024 1024"><path d="M0 512.4c0 3.9 2 9.8 5.9 11.7l260.4 262.4c3.9 2 7.8 3.9 11.7 3.9 5.9 0 9.8-2 13.7-3.9l27.4-29.4c3.9-3.9 5.9-7.8 5.9-11.7 0-5.9-2-9.8-5.9-13.7L99.9 512.4l219.3-219.3c3.9-3.9 5.9-9.8 5.9-13.7 0-3.9-2-9.8-5.9-13.7l-27.4-27.4c-3.9-3.9-7.8-5.9-13.7-5.9-3.9 0-7.8 2-11.7 5.9L5.9 498.7C2 502.6 0 506.5 0 512.4zm372 350.5c0 5.9 0 9.8 2 13.7 2 3.9 5.9 7.8 11.7 9.8l33.3 9.8c5.9 0 9.8 0 13.7-2 3.9-2 7.8-5.9 9.8-11.7L650 160c2-3.9 2-7.8-2-13.7-2-3.9-5.9-5.9-9.8-7.8l-35.2-9.8c-3.9-2-7.8 0-13.7 2-3.9 2-5.9 5.9-7.8 9.8L372 862.9zm325-117.5c0 3.9 2 7.8 5.9 11.7l29.4 29.4c2 2 7.8 3.9 11.7 3.9 5.9 0 9.8-2 13.7-3.9l260.4-262.4c3.9-2 5.9-7.8 5.9-11.7 0-5.9-2-9.8-5.9-13.7L757.7 238.3c-3.9-3.9-7.8-5.9-13.7-5.9-3.9 0-9.8 2-11.7 5.9l-29.4 27.4c-3.9 3.9-5.9 9.8-5.9 13.7 0 3.9 2 9.8 5.9 13.7l221.2 219.3-221.2 219.3c-3.9 3.9-5.9 7.8-5.9 13.7z"/></svg>