<svg xmlns="http://www.w3.org/2000/svg" viewBox="0 0 1098 1024">
    <path class="path1" d="M26 558c0 4 2 10 6 12l266 268c4 2 8 4 12 4 6 0 10-2 14-4l28-30c4-4 6-8 6-12 0-6-2-10-6-14l-224-224 224-224c4-4 6-10 6-14s-2-10-6-14l-28-28c-4-4-8-6-14-6-4 0-8 2-12 6l-266 266c-4 4-6 8-6 14zM406 916c0 6 0 10 2 14s6 8 12 10l34 10c6 0 10 0 14-2s8-6 10-12l212-738c2-4 2-8-2-14-2-4-6-6-10-8l-36-10c-4-2-8 0-14 2-4 2-6 6-8 10zM738 796c0 4 2 8 6 12l30 30c2 2 8 4 12 4 6 0 10-2 14-4l266-268c4-2 6-8 6-12 0-6-2-10-6-14l-266-266c-4-4-8-6-14-6-4 0-10 2-12 6l-30 28c-4 4-6 10-6 14s2 10 6 14l226 224-226 224c-4 4-6 8-6 14z"></path>
</svg>
