<svg xmlns="http://www.w3.org/2000/svg" viewBox="0 0 1170 1024">
    <path class="path1" d="M0 874h350c26 0 52-2 76-8 24-4 48-12 68-24 22-10 42-24 58-40 14-16 28-36 36-58 10-24 14-50 14-78 0-46-10-86-32-118s-56-52-98-66c64-30 98-80 98-150 0-34-6-64-18-88s-30-42-52-54c-22-14-46-22-72-28s-56-8-88-8h-340v720zM158 752v-198h172c76 0 114 34 114 102 0 64-38 96-116 96h-170zM158 446v-168h148c74 0 110 26 110 82 0 28-10 50-26 64-18 14-42 22-72 22h-160zM650 614c0 82 24 148 72 198s114 76 194 76c126 0 206-58 244-176h-126c-6 22-20 38-44 50-22 12-44 18-68 18-42 0-74-10-96-34s-32-56-32-98h376v-26c0-54-10-100-28-142-20-42-48-76-88-102s-84-40-138-40c-78 0-142 26-192 78-50 54-74 120-74 198zM764 274v-72h292v72h-292zM794 558c2-34 14-62 34-82 22-20 50-30 84-30 70 0 108 38 114 112h-232z"></path>
</svg>
