<svg xmlns="http://www.w3.org/2000/svg" viewBox="0 0 952 1024">
    <path d="M0 412c0 30 10 56 32 78 22 20 48 32 78 32h128c14 0 28 4 38 16 12 10 16 22 16 38v18c0 40-14 76-42 104s-64 42-104 42h-36c-10 0-18 4-26 12-8 6-10 16-10 26v72c0 10 2 18 10 26s16 10 26 10h36c40 0 78-6 114-22s66-36 94-62c26-28 46-58 62-94s22-74 22-114v-402c0-30-10-56-32-78-20-22-46-32-76-32h-220c-30 0-56 10-78 32s-32 48-32 78v220zM512 412c0 30 10 56 32 78 22 20 48 32 78 32h128c14 0 28 4 38 16 12 10 16 22 16 38v18c0 40-14 76-42 104s-64 42-104 42h-36c-10 0-18 4-26 12-8 6-10 16-10 26v72c0 10 2 18 10 26s16 10 26 10h36c40 0 78-6 114-22s66-36 94-62c26-28 46-58 62-94s22-74 22-114v-402c0-30-10-56-32-78-20-22-46-32-76-32h-220c-30 0-56 10-78 32s-32 48-32 78v220z"></path>
</svg>
