<svg xmlns="http://www.w3.org/2000/svg" viewBox="0 0 952 952"><path d="M24 773c0 28 8 52 22 76 22 36 54 62 98 78s90 24 140 24c60 0 118-10 170-32 54-22 94-56 122-104 18-32 26-64 26-98 0-30-6-58-18-82s-26-44-44-58c-16-16-34-30-52-42-16-14-32-26-44-40-12-12-18-26-18-40 0-12 4-26 14-38s20-24 34-34c14-12 26-24 40-38 12-14 24-32 34-54 8-22 14-46 14-74 0-34-8-64-22-90-14-28-36-52-64-76h74l80-50H390c-42 0-84 6-124 18s-74 30-104 56c-24 20-42 44-56 74s-22 60-22 92c0 56 20 102 58 138 40 38 88 56 144 56 8 0 20 0 38-2-8 18-12 34-12 48 0 16 4 30 10 42s14 26 26 42c-104 8-180 26-230 58-28 16-52 38-68 66-18 26-26 54-26 84zm106-26c0-22 6-42 16-60s24-32 40-42c14-10 34-20 54-26 22-8 42-12 62-14 20-4 40-4 60-4h28c0 2 8 6 20 16 14 8 20 14 24 16s10 8 20 16c12 10 20 16 22 20 4 4 10 12 18 20 8 10 12 18 16 24 2 8 4 16 8 24 2 10 4 18 4 28 0 24-6 44-16 62s-24 32-42 42-36 18-56 22c-20 6-42 8-64 8-26 0-50-2-74-8-22-6-46-14-68-26-20-10-38-26-52-46-12-22-20-44-20-72zm62-568c0-38 8-68 26-90 10-14 22-24 38-30 14-8 30-12 46-12 24 0 48 8 68 24s36 34 48 58 20 50 28 74c6 26 10 50 10 72 0 38-10 70-32 90-10 12-22 20-36 26-16 6-30 10-46 10-20 0-38-6-54-16-18-10-32-22-44-38s-20-34-30-52c-8-20-14-40-18-60-2-20-4-38-4-56zm434 282h120v124h60V461h122v-62H806V275h-60v124H626v62z"/></svg>