<svg xmlns="http://www.w3.org/2000/svg" viewBox="0 0 952 1024">
    <path class="path1" d="M14 524c0 4 2 8 4 12l36 42c4 4 8 6 12 8 4 0 10-2 14-4l396-330 394 330c4 2 8 4 12 4h2c6-2 10-4 12-8l36-42c4-4 4-8 4-12 0-6-2-10-6-14l-126-104v-232c0-6-2-10-4-14-4-2-8-4-14-4h-110c-4 0-10 2-12 4-4 4-6 8-6 14v112l-140-118c-12-10-26-14-42-14-18 0-32 4-44 14l-410 342c-4 4-6 8-8 14zM146 850c0 10 4 18 12 26 6 8 14 10 24 10h220v-218h146v218h220c10 0 18-2 26-10 6-8 10-16 10-26v-278l-328-270-330 270v278z"></path>
</svg>
