<svg xmlns="http://www.w3.org/2000/svg" viewBox="0 0 1024 1024">
    <path class="path1" d="M0 192c0 28 10 50 28 70 20 18 44 28 76 28h2c32 0 56-10 76-28 20-20 30-42 30-70s-10-52-30-70c-18-20-44-28-76-28s-56 8-76 28c-20 18-30 42-30 70zM10 932h190v-566h-190v566zM304 932h188v-316c0-18 2-34 6-46 8-20 20-36 36-48 16-14 36-20 60-20 34 0 58 12 72 34 16 22 24 54 24 94v302h188v-324c0-84-20-146-60-190s-92-64-156-64c-24 0-46 2-66 8s-36 14-50 24c-14 12-24 22-32 30-8 10-16 20-24 32h2v-82h-188v566z"></path>
</svg>
