<svg xmlns="http://www.w3.org/2000/svg" viewBox="0 0 960 960"><path d="M217.6 742.1c23.3 23.2 37.4 54.7 37.5 89.8-.1 35-14.2 66.5-37.4 89.7h-.1c-23.2 23.1-54.9 37.2-90.2 37.2-35.2 0-66.8-14.2-90-37.3C14.2 898.4 0 866.9 0 831.9c0-35.1 14.2-66.7 37.4-89.8 23.2-23.1 54.8-37.4 90-37.4 35.3 0 67 14.3 90.2 37.4zm0-.1c0 .1 0 .1 0 0zM37.4 921.6c0-.1 0-.1 0 0zM.1 326.4v183.3c119.7.1 232.9 47.1 317.6 131.9 84.7 84.6 131.5 197.9 131.7 318h.1v.3h184.1c-.1-174.6-71.1-332.8-185.9-447.6C332.8 397.6 174.7 326.6.1 326.4zM.4 0v183.2c427.8.3 775.6 348.6 775.8 776.8H960c-.1-264.6-107.7-504.4-281.5-678.4C504.6 107.7 265 .1.4 0z"/></svg>