<?xml version="1.0" encoding="utf-8"?>
<svg xmlns="http://www.w3.org/2000/svg" viewBox="0 0 360 235" width="360px" height="235px" preserveAspectRatio="xMinYMin meet">
    <g transform="translate(-66 -5)" style="fill: none; stroke-width: 2;">
        <path
            d="M81.018 115.097l.103.064.104.063.206.128.413.256.827.51 1.653 1.022 3.306 2.043 7.169 4.431 6.693 4.136 6.562 4.056 7.118 4.399 6.643 4.106 7.2 4.449 7.068 4.369 6.593 4.074 7.149 4.419 6.674 4.125 6.543 4.043 7.099 4.388 6.624 4.094 7.18 4.437 7.049 4.357 6.574 4.063 7.13 4.406 6.655 4.113 7.211 4.457 7.08 4.376 6.605 4.082 7.161 4.425.105.065.104.065.209.129.418.258.836.516 1.671 1.034.105.064.104.065.209.129.418.258.836.517 1.671 1.033.103.063.102.063.205.127.409.253.82.506.102.064.103.063.205.127.409.253.103.063.102.063.205.127.102.063.103.064.102.063.103.063M249.578 219.193H417.882"
            style="stroke: #F44336;"
            transform="matrix(-1, 0, 0, 1, 498.9, 0)"/>
        <path
            d="M81.018 120.581l.103.067.104.067.206.135.413.269.827.536 1.653 1.069 3.306 2.121 7.169 4.516 6.693 4.113 6.562 3.933 7.118 4.151 6.643 3.762 7.2 3.955 7.068 3.755 6.593 3.387 7.149 3.545 6.674 3.188 6.543 3.011 7.099 3.14 6.624 2.809 7.18 2.914 7.049 2.731 6.574 2.43 7.13 2.511 6.655 2.229 7.211 2.293 7.08 2.129 6.605 1.881 7.161 1.928 6.686 1.699 6.555 1.573 7.111 1.607 6.636 1.41 7.192 1.435 7.06 1.319 6.586 1.152 7.142 1.171 6.667 1.021 6.535.938 7.092.95 6.617.828 7.173.835 6.698.726 6.566.664 7.123.67 6.648.581 7.203.584 7.073.531 6.598.46 7.153.462 6.679.4 6.547.364 7.104.366 6.629.317.115.005.116.005.231.011.462.021.925.042 1.85.082.116.005.116.005.231.011.462.02.925.04.116.005.115.005.232.01.462.02.116.005.115.005.232.009.115.005.116.005.115.005.116.005"
            style="stroke: #F9BD19;"
            transform="matrix(-1, 0, 0, 1, 498.9, 0)"/>
    </g>
    <g transform="translate(-66 -5)" style="fill: none; stroke-width: 0.2; stroke: rgb(0, 0, 0);">
        <path d="M424.9 223.531H74M74 223.531V6.663M74 6.663h350.9M424.9 6.663V223.53M81.018 223.531v-4"/>
        <path d="M333.666 223.531v-4"/>
        <path d="M165.234 223.531v-4"/>
        <path d="M249.45 223.531v-4"/>
        <path d="M417.882 223.531v-4"/>
    </g>
    <g style="fill: none; stroke-width: 0.2; stroke: rgb(0, 0, 0);">
        <path d="M8 6h4"/>
        <path d="M8 58.458h4"/>
        <path d="M8 110.097h4"/>
        <path d="M8 162.458h4"/>
        <path d="M8 209.193h4"/>
    </g>
    <g style="font-size: 0.625rem;">
        <g transform="translate(3.018 221.53)">
            <text x="7" y="10">-3</text>
        </g>
        <g transform="translate(93.734 221.53)">
            <text y="10">-2</text>
        </g>
        <g transform="translate(177.95 221.53)">
            <text y="10">-1</text>
        </g>
        <g transform="translate(265.166 221.53)">
            <text y="10">0</text>
        </g>
        <g transform="translate(349.382 221.53)">
            <text y="10">1</text>
        </g>
        <g transform="translate(0 208.193)">
            <text y="10">0</text>
        </g>
        <g transform="translate(0 156.145)">
            <text y="10">1</text>
        </g>
        <g transform="translate(0 104.097)">
            <text y="10">2</text>
        </g>
        <g transform="translate(0 52.048)">
            <text y="10">3</text>
        </g>
        <g>
            <text y="10">4</text>
        </g>
    </g>
</svg>
